<svg width="100%" height="100%" viewBox="0 0 10334 10038" version="1.1" xmlns="http://www.w3.org/2000/svg" xmlns:xlink="http://www.w3.org/1999/xlink" xml:space="preserve" xmlns:serif="http://www.serif.com/" style="fill-rule:evenodd;clip-rule:evenodd;stroke-linecap:round;stroke-linejoin:round;stroke-miterlimit:1.5;">
    <g transform="matrix(1,0,0,1,-3463.38,-13.3575)">
        <g transform="matrix(-4.5972,-8.8325,8.8325,-4.5972,5789.92,13481.6)">
            <path d="M203.297,376.5C203.297,376.5 81.946,570.475 79.28,747.213C76.3,944.718 221.982,1130.75 530.179,1025.24C939.918,884.957 1178.14,914.932 1152.38,557.169C1134.74,311.947 744.254,61.479 469.213,101.104C342.985,119.29 262.309,268.752 203.297,376.5Z" style="fill:rgb(105,25,255);"/>
        </g>
        <g transform="matrix(0.756805,3.53748,-3.53748,0.756805,2580.93,-1957.66)">
            <g opacity="0.6">
                <g transform="matrix(8.74757,0,0,8.74757,-3060.67,-5727.65)">
                    <path d="M445.494,578L754.396,578" style="fill:none;stroke:rgb(255,254,250);stroke-width:1.11px;"/>
                </g>
                <g transform="matrix(8.74757,0,0,8.74757,-3060.67,-6639.43)">
                    <path d="M465.487,578L772.936,578" style="fill:none;stroke:rgb(255,254,250);stroke-width:1.11px;"/>
                </g>
                <g transform="matrix(-1.69956e-15,8.74757,-8.74757,-1.69956e-15,6860.39,-6448.29)">
                    <path d="M471.3,578L752.763,578" style="fill:none;stroke:rgb(255,254,250);stroke-width:1.11px;"/>
                </g>
                <g transform="matrix(-1.69956e-15,8.74757,-8.74757,-1.69956e-15,7772.17,-6448.29)">
                    <path d="M442.456,578L771.038,578" style="fill:none;stroke:rgb(255,254,250);stroke-width:1.11px;"/>
                </g>
            </g>
        </g>
        <g transform="matrix(-5.47647,-0.687201,-0.80325,6.4013,11982.3,3764.28)">
            <path d="M720.494,762.617L697.572,1015.11L869.742,1017.29L819.924,762.617L720.494,762.617Z" style="fill:url(#_Linear1);"/>
        </g>
        <g transform="matrix(8.74757,0,0,8.74757,3625.22,-44.1502)">
            <path d="M720.494,762.617L700.494,982.922L865.647,996.353L819.924,762.617L720.494,762.617Z" style="fill:url(#_Linear2);"/>
        </g>
        <g transform="matrix(9.06031,0,0,10.747,3262.34,-1512.23)">
            <ellipse cx="777.857" cy="696.603" rx="349.346" ry="81.395" style="fill:url(#_Linear3);"/>
        </g>
        <g transform="matrix(6.83691,0,0,6.83691,4858.3,1274.45)">
            <path d="M624.241,518.538C624.241,518.538 578.421,509.614 603.811,374.446C603.811,374.446 662.447,405.054 644.35,518.538L624.241,518.538Z" style="fill:url(#_Linear4);"/>
        </g>
        <g transform="matrix(6.83691,0,0,6.83691,4858.3,1274.45)">
            <path d="M636.897,506.029C636.897,506.029 628.139,413.862 680.189,400.464C680.189,400.464 705.57,452.042 662.552,511.411L636.897,506.029Z" style="fill:url(#_Linear5);"/>
        </g>
        <g transform="matrix(6.83691,0,0,6.83691,4809.44,1274.45)">
            <path d="M627.856,616.043C614.087,616.043 602.598,605.525 601.385,591.808C598.481,558.948 593.652,504.31 593.652,504.31L710.466,498.399C710.466,498.399 699.719,559.983 693.777,594.037C691.557,606.759 680.513,616.043 667.599,616.043C655.421,616.043 640.332,616.043 627.856,616.043Z" style="fill:url(#_Linear6);"/>
        </g>
        <g transform="matrix(6.83691,0,0,6.83691,4809.44,1240.26)">
            <path d="M588.071,504.593L715.852,498.399L715.852,511.411L588.071,515.002L588.071,504.593Z" style="fill:rgb(15,25,34);"/>
        </g>
        <g transform="matrix(8.74757,0,0,8.74757,3980.86,43.3255)">
            <path d="M781.698,513.311C781.698,513.311 844.609,569.831 827.314,631.263L886.68,631.263C886.68,631.263 949.988,566.338 886.68,503.249L781.698,513.311Z" style="fill:url(#_Radial7);"/>
        </g>
        <g transform="matrix(8.69399,-0.966725,0.966725,8.69399,2709.64,399.819)">
            <path d="M331.792,731.528C331.792,731.528 364.848,380.988 508.579,445.364C573.453,474.42 550.528,529.681 526.542,595.261C497.769,673.931 456.491,768.248 456.491,768.248L331.792,731.528Z" style="fill:rgb(15,25,34);"/>
        </g>
        <g transform="matrix(8.74757,0,0,8.74757,3472.12,-157.06)">
            <path d="M449.149,783.759C449.149,783.759 595.216,802.302 661.162,810.674C679.273,812.973 692.881,828.33 692.985,846.587C693.443,927.201 694.61,1132.74 694.61,1132.74L616.843,1136.31L595,890.654L479.53,870.401L449.149,783.759Z" style="fill:url(#_Linear8);"/>
        </g>
        <g transform="matrix(8.69399,-0.966725,0.966725,8.69399,-7319.59,921.124)">
            <path d="M1612.32,505.477L1624.04,462.681L1614.33,417.301C1589.61,397.243 1597.66,350.799 1617.06,349.892C1620.65,349.724 1623.99,350.275 1627.07,351.352L1640.65,271.463L1754.39,310.837C1754.39,310.837 1771.82,322.625 1760.85,384.629C1764.35,388.533 1768.79,394.06 1771.68,399.739C1776.81,409.813 1777.07,420.365 1758.51,423.19C1761.69,447.627 1747.21,448.883 1747.02,458.819C1746.36,494.747 1728.97,499.276 1682.92,491.171L1674.41,524.434C1664.01,539.467 1619.97,523.228 1612.32,505.477Z" style="fill:url(#_Linear9);"/>
        </g>
        <g transform="matrix(8.74757,0,0,8.74757,3625.22,43.3255)">
            <path d="M805.887,320.264L809.573,200.582L813.588,200.582L819.519,320.264L805.887,320.264Z" style="fill:rgb(31,39,49);"/>
        </g>
        <g transform="matrix(9.82216,0,0,10.4979,6534.97,-814.387)">
            <path d="M657.079,432.763C657.079,405.684 637.375,382.083 609.294,375.528C561.11,364.281 493.807,348.57 493.807,348.57L493.807,516.915C493.807,516.915 561.211,501.157 609.402,489.89C637.422,483.34 657.079,459.786 657.079,432.764C657.079,432.764 657.079,432.763 657.079,432.763Z" style="fill:url(#_Radial10);"/>
        </g>
        <g transform="matrix(2.93583,0,0,14.4136,8354.93,-1833.59)">
            <rect x="771.445" y="312.421" width="72.705" height="11.119" style="fill:rgb(15,25,34);"/>
        </g>
        <g transform="matrix(8.95338,0,0,8.95338,6239.35,-75.456)">
            <circle cx="500.569" cy="204.732" r="10.307" style="fill:url(#_Radial11);"/>
        </g>
        <g transform="matrix(7.27204,0,0,8.74757,5003.55,43.3255)">
            <path d="M878.791,598.893C942.045,598.893 993.4,622.721 993.4,639.754C993.4,656.787 942.045,660.615 878.791,660.615C815.537,660.615 764.182,656.787 764.182,639.754C764.182,622.721 815.537,598.893 878.791,598.893Z" style="fill:url(#_Linear12);"/>
        </g>
        <g transform="matrix(4.00708,-0.431763,3.35511,6.58024,3172.31,2454.11)">
            <path d="M1054.59,589.18C1117.84,589.18 1169.2,613.008 1169.2,630.041C1169.2,647.074 1117.84,650.902 1054.59,650.902C991.335,650.902 939.981,647.074 939.981,630.041C939.981,613.008 991.335,589.18 1054.59,589.18Z" style="fill:rgb(105,25,255);"/>
        </g>
        <g transform="matrix(8.74757,0,0,8.74757,3463.38,-60.837)">
            <path d="M331.792,731.528C321.677,742.155 294.656,779.621 307.44,856.012C315.08,901.663 470.297,951.316 610.452,928.985L802.655,1121.74L914.184,1091.74C914.184,1091.74 726.994,892.425 673.383,835.342C664.106,825.465 652.268,818.358 639.189,814.815C568.084,795.549 331.792,731.528 331.792,731.528Z" style="fill:url(#_Linear13);"/>
        </g>
        <g transform="matrix(11.3239,0,0,10.4979,4606.2,-814.387)">
            <path d="M657.079,432.713C657.079,384.281 620.681,345.019 575.782,345.019C550.098,345.019 521.724,345.019 496.04,345.019C474.479,345.019 453.8,354.258 438.554,370.704C423.308,387.15 414.742,409.455 414.742,432.713L414.742,432.713C414.742,481.146 451.141,520.408 496.04,520.408C521.724,520.408 550.098,520.408 575.782,520.408C620.681,520.408 657.079,481.146 657.079,432.713L657.079,432.713Z" style="fill:rgb(15,25,34);"/>
        </g>
        <g transform="matrix(11.3239,0,0,10.4979,4606.2,-814.387)">
            <path d="M639.13,432.713L639.13,432.713C639.13,470.453 610.768,501.047 575.782,501.047C550.098,501.047 521.724,501.047 496.04,501.047C461.054,501.047 432.691,470.453 432.691,432.713C432.691,432.713 432.691,432.713 432.691,432.713C432.691,414.59 439.366,397.209 451.246,384.394C463.126,371.579 479.239,364.38 496.04,364.38C521.724,364.38 550.098,364.38 575.782,364.38C610.768,364.38 639.13,394.974 639.13,432.713Z" style="fill:url(#_Radial14);"/>
        </g>
        <g transform="matrix(8.74757,0,0,8.74757,4255.64,89.7703)">
            <path d="M501.19,920.654L218.924,859.172L191.364,204.572L78.683,204.572C78.683,204.572 110.035,679.131 121.693,855.597C124.223,893.893 152.346,925.624 190.061,932.737C297.221,952.946 501.19,991.411 501.19,991.411L501.19,920.654Z" style="fill:url(#_Linear15);"/>
        </g>
        <g transform="matrix(3.11298,0,0,3.58551,8439.08,-16331.4)">
            <path d="M614.375,5464.88C685.043,5512.19 700.375,5545.5 700.375,5545.5L734.382,5545.5C734.382,5545.5 750.431,5511.9 820.386,5464.88C849.444,5492.28 867.596,5531.13 867.596,5574.18C867.596,5657.09 800.286,5724.4 717.378,5724.4C634.47,5724.4 567.16,5657.09 567.16,5574.18C567.16,5531.13 585.312,5492.28 614.375,5464.88Z" style="fill:url(#_Radial16);"/>
        </g>
        <g transform="matrix(2.95072,0,0,3.44956,8555.48,-15564.3)">
            <path d="M615.59,5465.41L615.592,5465.4C686.26,5512.72 697.817,5544.52 697.817,5544.52L736.807,5544.33C736.807,5544.33 748.956,5512.66 818.908,5465.65L818.908,5465.65C805.173,5491.9 783.688,5532.89 790.354,5590.13C790.354,5590.13 747.452,5626.37 729.072,5723.89C724.808,5724.26 721.747,5724.4 717.378,5724.4C713.025,5724.4 709.86,5724.23 705.597,5723.87C687.222,5626.34 644.73,5589.7 644.73,5589.7C653.414,5528.91 629.333,5491.81 615.59,5465.41Z" style="fill:rgb(105,25,255);"/>
        </g>
        <g transform="matrix(3.11298,0,0,3.58551,8439.08,-16331.4)">
            <path d="M616.646,5466.41C685.372,5512.91 700.375,5545.5 700.375,5545.5L734.382,5545.5C734.382,5545.5 749.874,5513.06 816.771,5467.34L818.138,5469.18C804.18,5495.9 782.682,5539.27 788.998,5593.51C788.998,5593.51 748.717,5626.32 730.337,5723.85C726.073,5724.21 721.747,5724.4 717.378,5724.4C713.025,5724.4 708.716,5724.21 704.452,5723.85C686.078,5626.32 645.757,5593.5 645.757,5593.5C654.107,5535.05 630.096,5494.51 616.02,5468.01L616.646,5466.41ZM798.843,5489.9C787.217,5515.97 776.326,5550.42 780.254,5590.9C770.537,5600.46 739.43,5636.33 723.13,5716.97C721.223,5717.04 719.305,5717.08 717.378,5717.08C715.463,5717.08 713.556,5717.04 711.659,5716.97C695.405,5636.54 664.395,5600.64 654.581,5590.97C659.8,5548.71 648.748,5515.7 636.855,5490.54C681.686,5525.32 692.547,5548.22 692.547,5548.22C693.826,5551 696.927,5552.82 700.375,5552.82L734.382,5552.82C737.79,5552.82 740.863,5551.04 742.169,5548.3C742.169,5548.3 753.643,5524.91 798.843,5489.9Z" style="fill:url(#_Linear17);"/>
        </g>
        <g transform="matrix(-3.23454,0.457437,0.397152,3.72553,22271.2,-7386.69)">
            <path d="M3851.76,2572.2C3857.99,2580.94 3861.82,2590.09 3863.92,2596.12C3864.43,2597.69 3864.12,2599.41 3863.1,2600.7C3862.08,2602 3860.49,2602.7 3858.84,2602.58C3846.41,2601.64 3821.46,2598.31 3814,2587C3802.18,2569.08 3809.16,2555.63 3812.99,2550.39C3814.15,2548.88 3816.07,2548.16 3817.93,2548.54C3823.97,2549.82 3829.32,2552.11 3834.03,2555.05C3829.07,2560.68 3828.66,2568.63 3833.26,2573.24C3837.95,2577.92 3846.12,2577.42 3851.76,2572.2Z" style="fill:rgb(105,25,255);"/>
        </g>
        <g transform="matrix(3.23454,0.457437,-0.397152,3.72553,-926.663,-7386.69)">
            <path d="M3851.76,2572.2C3857.99,2580.94 3861.82,2590.09 3863.92,2596.12C3864.43,2597.69 3864.12,2599.41 3863.1,2600.7C3862.08,2602 3860.49,2602.7 3858.84,2602.58C3846.41,2601.64 3821.46,2598.31 3814,2587C3802.18,2569.08 3809.16,2555.63 3812.99,2550.39C3814.15,2548.88 3816.07,2548.16 3817.93,2548.54C3823.97,2549.82 3829.32,2552.11 3834.03,2555.05C3829.07,2560.68 3828.66,2568.63 3833.26,2573.24C3837.95,2577.92 3846.12,2577.42 3851.76,2572.2Z" style="fill:rgb(105,25,255);"/>
        </g>
        <g transform="matrix(5.92671,0,0,6.69486,5980.93,901.019)">
            <rect x="851.092" y="408.727" width="29.945" height="9.107" style="fill:rgb(105,25,255);"/>
        </g>
        <g transform="matrix(7.59473,0,0,8.74757,4676.61,43.3255)">
            <path d="M867.428,410.865C867.449,411.526 867.459,412.191 867.459,412.858C867.459,414.533 867.392,416.193 867.261,417.835L851.092,417.835L851.092,410.865L867.428,410.865Z" style="fill:rgb(211,192,248);"/>
        </g>
        <g transform="matrix(3.85117,0,0,6.69486,7698.92,616.65)">
            <rect x="851.092" y="408.727" width="29.945" height="9.107" style="fill:rgb(105,25,255);"/>
        </g>
        <g transform="matrix(3.85117,0,0,6.69486,7527.49,849.957)">
            <rect x="851.092" y="408.727" width="29.945" height="9.107" style="fill:rgb(105,25,255);"/>
        </g>
        <g transform="matrix(3.85117,0,0,6.69486,7229.4,1104.97)">
            <rect x="851.092" y="408.727" width="29.945" height="9.107" style="fill:rgb(105,25,255);"/>
        </g>
        <g transform="matrix(3.85117,0,0,6.69486,7138.58,626.612)">
            <rect x="851.092" y="408.727" width="29.945" height="9.107" style="fill:rgb(105,25,255);"/>
        </g>
        <g transform="matrix(7.59473,0,0,8.74757,4628.12,-241.043)">
            <path d="M867.428,410.865C867.449,411.526 867.459,412.191 867.459,412.858C867.459,414.533 867.392,416.193 867.261,417.835L851.092,417.835L851.092,410.865L867.428,410.865Z" style="fill:rgb(184,153,247);"/>
        </g>
        <g transform="matrix(-5.92671,0,0,6.69486,15368.6,1013.95)">
            <rect x="851.092" y="408.727" width="29.945" height="9.107" style="fill:rgb(105,25,255);"/>
        </g>
        <g transform="matrix(-7.59473,0,0,8.74757,16672.9,156.254)">
            <path d="M867.428,410.865C867.449,411.526 867.459,412.191 867.459,412.858C867.459,414.533 867.392,416.193 867.261,417.835L851.092,417.835L851.092,410.865L867.428,410.865Z" style="fill:rgb(222,207,248);"/>
        </g>
        <g transform="matrix(-5.92671,0,0,6.69486,15443.9,1224.53)">
            <rect x="851.092" y="408.727" width="29.945" height="9.107" style="fill:rgb(105,25,255);"/>
        </g>
        <g transform="matrix(-7.59473,0,0,8.74757,16748.2,366.836)">
            <path d="M867.428,410.865C867.449,411.526 867.459,412.191 867.459,412.858C867.459,414.533 867.392,416.193 867.261,417.835L851.092,417.835L851.092,410.865L867.428,410.865Z" style="fill:rgb(240,232,249);"/>
        </g>
        <g transform="matrix(8.03031,3.46904,-3.46904,8.03031,-4351.49,-6055.69)">
            <path d="M1772.36,672.436L1953.75,639.361C1957.98,634.279 1969.44,621.797 1988.93,618.64C1990.77,618.374 1992.56,619.321 1993.38,620.986C1993.4,620.975 1993.4,620.975 1993.4,620.975C1994.05,622.293 1994.12,623.821 1993.58,625.189C1993.05,626.557 1991.97,627.639 1990.61,628.174C1984.91,630.422 1976.62,634.604 1975.62,640.21C1975.62,640.21 2006.82,618.495 2037.62,617.821C2040.15,617.801 2042.32,619.63 2042.72,622.13C2042.74,622.128 2042.74,622.129 2042.74,622.129C2043.12,624.464 2041.61,626.687 2039.3,627.19C2028.07,629.662 1996.85,637.405 1982.09,649.493C1982.09,649.493 2018.3,637.625 2039.68,634.662C2041.65,634.528 2043.59,635.198 2045.05,636.519C2046.51,637.84 2047.38,639.699 2047.44,641.669C2047.47,641.669 2047.47,641.669 2047.47,641.67C2047.53,643.564 2046.19,645.214 2044.32,645.542C2033.44,647.435 1998.29,653.775 1985.87,658.705C1985.87,658.705 2014.2,654.186 2029.7,652.889C2031.43,652.836 2033.1,653.501 2034.32,654.726C2035.53,655.952 2036.19,657.627 2036.12,659.353C2036.13,659.353 2036.13,659.354 2036.13,659.354C2036.05,661.41 2034.43,663.071 2032.38,663.198C2024.03,663.715 2003.3,665.624 1992.07,671.867C1977.97,679.706 1966.45,680.511 1948.6,676.1L1744.37,732.965C1743.57,732.988 1742.01,733.089 1740.06,733.145C1731.38,733.393 1722.99,729.959 1716.98,723.69C1716.01,722.632 1715.04,721.614 1713.98,720.596C1687.24,694.899 1638.29,628.25 1638.29,628.25L1699.6,578L1772.36,672.436Z" style="fill:url(#_Linear18);"/>
        </g>
        <g transform="matrix(8.74757,0,0,8.74757,-6934.37,-60.837)">
            <path d="M1614.27,436.453C1570.5,464.412 1584.01,431.275 1584.01,431.275C1577.64,435.756 1567.57,444.514 1542.4,424.816C1515.86,404.039 1531.26,380.166 1531.26,380.166C1531.26,380.166 1507.84,393.045 1493.29,376.356C1460.89,339.191 1506.18,304.148 1506.18,304.148C1490.57,299.162 1473.44,287.548 1509.13,227.779C1545.4,167.042 1593.89,183.959 1593.89,183.959C1593.89,183.959 1590.27,154.249 1626.57,143.236C1666.87,131.01 1677.16,157.753 1677.16,157.753C1677.16,157.753 1688.98,139.556 1717.58,138.96C1746.19,138.364 1739.39,172.197 1739.39,172.197C1739.39,172.197 1778.65,152.368 1783.67,184.278C1788.71,216.259 1767.36,233.077 1754.19,240.053C1751.93,241.251 1753.4,243.546 1751.45,249.849C1750.39,253.299 1746.65,253.68 1746.65,253.68C1746.65,253.68 1745.32,248.928 1743.82,243.573C1742.65,239.429 1739.87,235.928 1736.1,233.859C1732.32,231.79 1727.88,231.328 1723.76,232.576C1689.15,243.93 1648.91,272.577 1631.67,284.281C1623.31,284.004 1618.2,283.971 1618.2,283.971C1614.66,281.683 1606.11,281.139 1601.75,282.033C1582.72,285.93 1581.27,331.227 1608.06,348.429C1608.06,348.429 1615.54,363.594 1620.83,374.33C1624.16,381.08 1625.07,388.768 1623.41,396.108L1614.27,436.453Z" style="fill:url(#_Linear19);"/>
        </g>
        <g transform="matrix(8.03031,3.46904,-3.46904,8.03031,5193.69,-1932.25)">
            <path d="M448.086,656.588C448.086,656.588 515.353,651.107 546.496,599.233C546.496,599.233 482.617,511.725 442.497,533.422C389.69,561.981 448.086,656.588 448.086,656.588Z" style="fill:rgb(15,25,34);stroke:rgb(31,39,49);stroke-width:3px;"/>
        </g>
        <g transform="matrix(8.69399,-0.966725,0.966725,8.69399,2838.95,93.9744)">
            <path d="M487.491,294.121L500.572,211.679L505.915,211.679L496.392,297.729L487.491,294.121Z" style="fill:rgb(31,39,49);"/>
        </g>
        <g transform="matrix(8.48516,-0.943503,0.943503,8.48516,3185.29,-152.614)">
            <circle cx="471.731" cy="238.144" r="10.307" style="fill:rgb(15,25,34);"/>
        </g>
        <g transform="matrix(8.69399,-0.966725,0.966725,8.69399,3014.47,-227.967)">
            <path d="M543.415,386.576L455.956,367.02L468.558,340.067L548.803,343.921L543.415,386.576Z" style="fill:rgb(31,39,49);"/>
        </g>
        <g transform="matrix(8.69399,-0.966725,0.966725,8.69399,3024.56,-137.154)">
            <path d="M555.833,372.394L573.75,374.317C573.75,374.317 578.061,369.962 573.75,362.941L555.833,362.941L555.833,372.394Z" style="fill:rgb(15,25,34);"/>
        </g>
        <g transform="matrix(8.57022,-0.117935,0.144708,10.5158,3055.17,-1251.7)">
            <ellipse cx="588.03" cy="362.599" rx="8.807" ry="36.379" style="fill:rgb(105,25,255);"/>
        </g>
        <g transform="matrix(8.69399,-0.966725,0.966725,8.69399,3015.43,-219.273)">
            <ellipse cx="463.897" cy="351.795" rx="21.475" ry="28.152" style="fill:rgb(15,25,34);"/>
        </g>
        <g transform="matrix(8.69399,-0.966725,0.966725,8.69399,3014.47,-227.967)">
            <path d="M557.89,343.914C558.42,349.466 558.532,356.396 558.166,364.09L539.914,376.386C540.005,375.282 540.105,374.167 540.214,373.042C540.883,366.173 541.829,359.704 542.952,353.979L557.89,343.914Z" style="fill:rgb(184,153,247);"/>
        </g>
        <g transform="matrix(8.69399,-0.966725,0.966725,8.69399,3014.47,-227.967)">
            <path d="M557.562,372.887C557.508,373.491 557.451,374.101 557.392,374.713C557.054,378.19 556.644,381.564 556.176,384.791L539.274,396.178C539.187,392.769 539.218,389.062 539.375,385.139L557.562,372.887Z" style="fill:rgb(184,153,247);"/>
        </g>
    </g>
    <defs>
        <linearGradient id="_Linear1" x1="0" y1="0" x2="1" y2="0" gradientUnits="userSpaceOnUse" gradientTransform="matrix(4.42599,203.282,-203.282,3.23949,783.07,821.477)"><stop offset="0" style="stop-color:rgb(15,25,34);stop-opacity:1"/><stop offset="1" style="stop-color:rgb(31,39,49);stop-opacity:0"/></linearGradient>
        <linearGradient id="_Linear2" x1="0" y1="0" x2="1" y2="0" gradientUnits="userSpaceOnUse" gradientTransform="matrix(1.12573e-14,183.846,-183.846,1.12573e-14,783.07,812.507)"><stop offset="0" style="stop-color:rgb(31,39,49);stop-opacity:1"/><stop offset="0.46" style="stop-color:rgb(35,43,53);stop-opacity:0.72"/><stop offset="1" style="stop-color:rgb(45,53,62);stop-opacity:0"/></linearGradient>
        <linearGradient id="_Linear3" x1="0" y1="0" x2="1" y2="0" gradientUnits="userSpaceOnUse" gradientTransform="matrix(235.679,-5.55215e-13,6.58576e-13,198.691,891.523,696.603)"><stop offset="0" style="stop-color:rgb(15,25,34);stop-opacity:1"/><stop offset="0.57" style="stop-color:rgb(18,28,37);stop-opacity:0.8"/><stop offset="0.79" style="stop-color:rgb(25,34,43);stop-opacity:0.39"/><stop offset="1" style="stop-color:rgb(31,39,49);stop-opacity:0"/></linearGradient>
        <linearGradient id="_Linear4" x1="0" y1="0" x2="1" y2="0" gradientUnits="userSpaceOnUse" gradientTransform="matrix(25.2164,144.092,-144.092,25.2164,611.125,374.446)"><stop offset="0" style="stop-color:rgb(255,254,249);stop-opacity:1"/><stop offset="0.46" style="stop-color:rgb(235,226,249);stop-opacity:1"/><stop offset="1" style="stop-color:rgb(184,153,248);stop-opacity:1"/></linearGradient>
        <linearGradient id="_Linear5" x1="0" y1="0" x2="1" y2="0" gradientUnits="userSpaceOnUse" gradientTransform="matrix(31.9685,-110.948,110.948,31.9685,647.817,511.411)"><stop offset="0" style="stop-color:rgb(184,153,248);stop-opacity:1"/><stop offset="0.46" style="stop-color:rgb(240,232,249);stop-opacity:1"/><stop offset="1" style="stop-color:rgb(255,254,249);stop-opacity:1"/></linearGradient>
        <linearGradient id="_Linear6" x1="0" y1="0" x2="1" y2="0" gradientUnits="userSpaceOnUse" gradientTransform="matrix(-5.28361,-116.123,116.123,-5.28361,651.962,616.347)"><stop offset="0" style="stop-color:rgb(31,39,49);stop-opacity:1"/><stop offset="0.52" style="stop-color:rgb(27,36,45);stop-opacity:1"/><stop offset="1" style="stop-color:rgb(15,25,34);stop-opacity:1"/></linearGradient>
        <radialGradient id="_Radial7" cx="0" cy="0" r="1" gradientUnits="userSpaceOnUse" gradientTransform="matrix(25.0734,76.6006,-76.6006,25.0734,847.468,522.292)"><stop offset="0" style="stop-color:rgb(15,25,34);stop-opacity:1"/><stop offset="1" style="stop-color:rgb(31,39,49);stop-opacity:1"/></radialGradient>
        <linearGradient id="_Linear8" x1="0" y1="0" x2="1" y2="0" gradientUnits="userSpaceOnUse" gradientTransform="matrix(-8.88759,-275.49,275.49,-8.88759,656.823,1132.74)"><stop offset="0" style="stop-color:rgb(45,53,62);stop-opacity:0"/><stop offset="0.5" style="stop-color:rgb(35,43,52);stop-opacity:0.75"/><stop offset="1" style="stop-color:rgb(31,39,49);stop-opacity:1"/></linearGradient>
        <linearGradient id="_Linear9" x1="0" y1="0" x2="1" y2="0" gradientUnits="userSpaceOnUse" gradientTransform="matrix(211.488,235.59,-235.59,211.488,1591.34,216.555)"><stop offset="0" style="stop-color:rgb(184,153,248);stop-opacity:1"/><stop offset="1" style="stop-color:rgb(255,254,249);stop-opacity:1"/></linearGradient>
        <radialGradient id="_Radial10" cx="0" cy="0" r="1" gradientUnits="userSpaceOnUse" gradientTransform="matrix(220.939,-0.0291529,0.0311584,206.718,436.141,432.742)"><stop offset="0" style="stop-color:rgb(15,25,34);stop-opacity:1"/><stop offset="0.54" style="stop-color:rgb(19,28,37);stop-opacity:1"/><stop offset="1" style="stop-color:rgb(31,39,49);stop-opacity:1"/></radialGradient>
        <radialGradient id="_Radial11" cx="0" cy="0" r="1" gradientUnits="userSpaceOnUse" gradientTransform="matrix(6.311e-16,-10.3066,10.3066,6.311e-16,500.569,204.732)"><stop offset="0" style="stop-color:rgb(151,84,239);stop-opacity:1"/><stop offset="0.45" style="stop-color:rgb(138,67,244);stop-opacity:1"/><stop offset="1" style="stop-color:rgb(105,25,255);stop-opacity:1"/></radialGradient>
        <linearGradient id="_Linear12" x1="0" y1="0" x2="1" y2="0" gradientUnits="userSpaceOnUse" gradientTransform="matrix(-0.949244,61.7226,-74.2465,-0.789126,879.74,598.893)"><stop offset="0" style="stop-color:rgb(31,39,49);stop-opacity:1"/><stop offset="0.54" style="stop-color:rgb(27,36,46);stop-opacity:1"/><stop offset="1" style="stop-color:rgb(15,25,34);stop-opacity:1"/></linearGradient>
        <linearGradient id="_Linear13" x1="0" y1="0" x2="1" y2="0" gradientUnits="userSpaceOnUse" gradientTransform="matrix(109.326,269.755,-269.755,109.326,642.339,869.485)"><stop offset="0" style="stop-color:rgb(15,25,34);stop-opacity:1"/><stop offset="0.53" style="stop-color:rgb(19,28,37);stop-opacity:0.78"/><stop offset="1" style="stop-color:rgb(31,39,49);stop-opacity:0"/></linearGradient>
        <radialGradient id="_Radial14" cx="0" cy="0" r="1" gradientUnits="userSpaceOnUse" gradientTransform="matrix(103.22,0,0,111.341,535.911,432.713)"><stop offset="0" style="stop-color:rgb(105,25,255);stop-opacity:1"/><stop offset="0.46" style="stop-color:rgb(114,36,248);stop-opacity:1"/><stop offset="1" style="stop-color:rgb(136,64,230);stop-opacity:1"/></radialGradient>
        <linearGradient id="_Linear15" x1="0" y1="0" x2="1" y2="0" gradientUnits="userSpaceOnUse" gradientTransform="matrix(-121.175,6.64694,-6.64694,-121.175,203.7,525.744)"><stop offset="0" style="stop-color:rgb(31,39,49);stop-opacity:1"/><stop offset="0.44" style="stop-color:rgb(35,43,53);stop-opacity:0.7"/><stop offset="1" style="stop-color:rgb(45,53,62);stop-opacity:0"/></linearGradient>
        <radialGradient id="_Radial16" cx="0" cy="0" r="1" gradientUnits="userSpaceOnUse" gradientTransform="matrix(1.58911e-14,-259.521,259.521,1.58911e-14,717.378,5724.4)"><stop offset="0" style="stop-color:rgb(255,254,249);stop-opacity:1"/><stop offset="0.53" style="stop-color:rgb(239,231,249);stop-opacity:1"/><stop offset="1" style="stop-color:rgb(184,153,247);stop-opacity:1"/></radialGradient>
        <linearGradient id="_Linear17" x1="0" y1="0" x2="1" y2="0" gradientUnits="userSpaceOnUse" gradientTransform="matrix(5.34519e-13,-259.521,259.521,5.34519e-13,717.378,5724.4)"><stop offset="0" style="stop-color:rgb(255,254,249);stop-opacity:1"/><stop offset="0.53" style="stop-color:rgb(239,231,249);stop-opacity:1"/><stop offset="1" style="stop-color:rgb(184,153,247);stop-opacity:1"/></linearGradient>
        <linearGradient id="_Linear18" x1="0" y1="0" x2="1" y2="0" gradientUnits="userSpaceOnUse" gradientTransform="matrix(-339.839,-120.552,120.552,-339.839,1978.13,698.552)"><stop offset="0" style="stop-color:rgb(255,254,249);stop-opacity:1"/><stop offset="1" style="stop-color:rgb(184,153,248);stop-opacity:1"/></linearGradient>
        <linearGradient id="_Linear19" x1="0" y1="0" x2="1" y2="0" gradientUnits="userSpaceOnUse" gradientTransform="matrix(-137.444,224.896,-224.896,-137.444,1675.91,194.732)"><stop offset="0" style="stop-color:rgb(136,64,230);stop-opacity:1"/><stop offset="1" style="stop-color:rgb(80,0,184);stop-opacity:1"/></linearGradient>
    </defs>
</svg>
