<svg viewBox="0 0 483 52" version="1.1" xmlns="http://www.w3.org/2000/svg" xmlns:xlink="http://www.w3.org/1999/xlink" xml:space="preserve" xmlns:serif="http://www.serif.com/" style="fill-rule:evenodd;clip-rule:evenodd;stroke-linejoin:round;stroke-miterlimit:2;">
  <g transform="matrix(1.41538,0,0,1.41538,-944.414,-10312.5)">
    <path d="M674.779,7316.23L687.376,7316.23L687.376,7322.18L667.601,7322.18L667.601,7286.64L674.779,7286.64L674.779,7316.23Z" style="fill:rgb(255,254,249);fill-rule:nonzero;"/>
    <path d="M714.989,7307.61C714.989,7312.38 713.862,7316.08 711.607,7318.72C709.353,7321.35 706.224,7322.67 702.22,7322.67C698.232,7322.67 695.099,7321.37 692.821,7318.75C690.542,7316.14 689.386,7312.48 689.354,7307.78L689.354,7301.7C689.354,7296.82 690.485,7293.01 692.747,7290.26C695.01,7287.52 698.151,7286.15 702.171,7286.15C706.126,7286.15 709.243,7287.5 711.522,7290.19C713.8,7292.88 714.956,7296.66 714.989,7301.53L714.989,7307.61ZM707.786,7301.65C707.786,7298.44 707.331,7296.06 706.419,7294.5C705.508,7292.94 704.092,7292.15 702.171,7292.15C700.267,7292.15 698.859,7292.91 697.948,7294.41C697.036,7295.92 696.564,7298.21 696.532,7301.29L696.532,7307.61C696.532,7310.72 696.995,7313.01 697.923,7314.48C698.851,7315.95 700.283,7316.69 702.22,7316.69C704.092,7316.69 705.483,7315.97 706.395,7314.53C707.306,7313.09 707.77,7310.86 707.786,7307.83L707.786,7301.65Z" style="fill:rgb(255,254,249);fill-rule:nonzero;"/>
    <path d="M730.15,7308.46L727.318,7312.03L727.318,7322.18L720.14,7322.18L720.14,7286.64L727.318,7286.64L727.318,7302.14L729.588,7298.31L736.204,7286.64L744.994,7286.64L734.813,7302.26L745.164,7322.18L736.644,7322.18L730.15,7308.46Z" style="fill:rgb(255,254,249);fill-rule:nonzero;"/>
    <path d="M757.811,7308.46L754.979,7312.03L754.979,7322.18L747.801,7322.18L747.801,7286.64L754.979,7286.64L754.979,7302.14L757.249,7298.31L763.866,7286.64L772.655,7286.64L762.474,7302.26L772.826,7322.18L764.305,7322.18L757.811,7308.46Z" style="fill:rgb(255,254,249);fill-rule:nonzero;"/>
    <path d="M793.822,7306.8L782.64,7306.8L782.64,7316.23L795.872,7316.23L795.872,7322.18L775.462,7322.18L775.462,7286.64L795.824,7286.64L795.824,7292.62L782.64,7292.62L782.64,7301.02L793.822,7301.02L793.822,7306.8Z" style="fill:rgb(255,254,249);fill-rule:nonzero;"/>
    <path d="M818.358,7306.8L807.176,7306.8L807.176,7316.23L820.409,7316.23L820.409,7322.18L799.998,7322.18L799.998,7286.64L820.36,7286.64L820.36,7292.62L807.176,7292.62L807.176,7301.02L818.358,7301.02L818.358,7306.8Z" style="fill:rgb(255,254,249);fill-rule:nonzero;"/>
    <path d="M852.562,7313.2C852.562,7311.43 852.082,7310.07 851.121,7309.12C850.161,7308.18 848.428,7307.26 845.921,7306.36C843.415,7305.47 841.498,7304.53 840.172,7303.54C838.845,7302.56 837.852,7301.44 837.193,7300.18C836.534,7298.91 836.204,7297.47 836.204,7295.84C836.204,7293.03 837.144,7290.71 839.024,7288.88C840.904,7287.06 843.366,7286.15 846.41,7286.15C848.493,7286.15 850.348,7286.62 851.976,7287.55C853.604,7288.49 854.857,7289.79 855.736,7291.45C856.615,7293.11 857.054,7294.93 857.054,7296.91L852.562,7296.91C852.562,7294.72 852.033,7293.02 850.975,7291.81C849.917,7290.61 848.395,7290.01 846.41,7290.01C844.603,7290.01 843.203,7290.51 842.21,7291.52C841.217,7292.53 840.721,7293.94 840.721,7295.77C840.721,7297.27 841.258,7298.52 842.332,7299.53C843.407,7300.54 845.067,7301.44 847.313,7302.24C850.812,7303.39 853.315,7304.82 854.82,7306.51C856.326,7308.2 857.078,7310.42 857.078,7313.15C857.078,7316.03 856.143,7318.34 854.271,7320.07C852.399,7321.81 849.852,7322.67 846.629,7322.67C844.562,7322.67 842.654,7322.22 840.904,7321.32C839.154,7320.41 837.779,7319.14 836.778,7317.51C835.777,7315.87 835.277,7314 835.277,7311.88L839.769,7311.88C839.769,7314.08 840.383,7315.79 841.612,7317.01C842.841,7318.23 844.513,7318.84 846.629,7318.84C848.599,7318.84 850.08,7318.34 851.073,7317.33C852.065,7316.32 852.562,7314.94 852.562,7313.2Z" style="fill:rgb(255,254,249);fill-rule:nonzero;"/>
    <path d="M883.714,7290.49L874.364,7290.49L874.364,7322.18L869.896,7322.18L869.896,7290.49L860.57,7290.49L860.57,7286.64L883.714,7286.64L883.714,7290.49Z" style="fill:rgb(255,254,249);fill-rule:nonzero;"/>
    <path d="M910.155,7286.64L910.155,7311.91C910.122,7315.28 909.146,7317.91 907.225,7319.82C905.304,7321.72 902.627,7322.67 899.193,7322.67C895.677,7322.67 892.992,7321.74 891.136,7319.88C889.281,7318.01 888.337,7315.36 888.304,7311.91L888.304,7286.64L892.747,7286.64L892.747,7311.74C892.747,7314.13 893.256,7315.91 894.273,7317.09C895.291,7318.27 896.93,7318.86 899.193,7318.86C901.471,7318.86 903.119,7318.27 904.137,7317.09C905.154,7315.91 905.662,7314.13 905.662,7311.74L905.662,7286.64L910.155,7286.64Z" style="fill:rgb(255,254,249);fill-rule:nonzero;"/>
    <path d="M917.039,7322.18L917.039,7286.64L925.511,7286.64C929.661,7286.64 932.884,7287.94 935.179,7290.53C937.474,7293.13 938.621,7296.78 938.621,7301.48L938.621,7307.44C938.621,7312.14 937.458,7315.78 935.13,7318.34C932.803,7320.9 929.425,7322.18 924.998,7322.18L917.039,7322.18ZM921.507,7290.49L921.507,7318.35L925.096,7318.35C928.237,7318.35 930.532,7317.45 931.981,7315.65C933.429,7313.86 934.17,7311.19 934.202,7307.66L934.202,7301.36C934.202,7297.61 933.482,7294.87 932.042,7293.12C930.601,7291.37 928.425,7290.49 925.511,7290.49L921.507,7290.49Z" style="fill:rgb(255,254,249);fill-rule:nonzero;"/>
    <rect x="945.775" y="7286.64" width="4.468" height="35.547" style="fill:rgb(255,254,249);fill-rule:nonzero;"/>
    <path d="M981.2,7307.54C981.2,7312.39 980.166,7316.12 978.099,7318.74C976.032,7321.36 973.094,7322.67 969.286,7322.67C965.623,7322.67 962.73,7321.4 960.606,7318.85C958.482,7316.3 957.38,7312.7 957.298,7308.05L957.298,7301.36C957.298,7296.61 958.348,7292.88 960.448,7290.19C962.547,7287.5 965.477,7286.15 969.237,7286.15C972.98,7286.15 975.898,7287.44 977.989,7290.02C980.081,7292.6 981.151,7296.28 981.2,7301.07L981.2,7307.54ZM976.732,7301.31C976.732,7297.55 976.117,7294.76 974.889,7292.92C973.66,7291.09 971.776,7290.18 969.237,7290.18C966.779,7290.18 964.919,7291.11 963.658,7292.96C962.397,7294.82 961.758,7297.55 961.742,7301.16L961.742,7307.54C961.742,7311.16 962.372,7313.93 963.634,7315.84C964.895,7317.74 966.779,7318.69 969.286,7318.69C971.792,7318.69 973.647,7317.81 974.852,7316.06C976.056,7314.3 976.683,7311.61 976.732,7307.98L976.732,7301.31Z" style="fill:rgb(255,254,249);fill-rule:nonzero;"/>
    <path d="M1003.64,7313.2C1003.64,7311.43 1003.16,7310.07 1002.2,7309.12C1001.24,7308.18 999.502,7307.26 996.995,7306.36C994.489,7305.47 992.572,7304.53 991.246,7303.54C989.919,7302.56 988.927,7301.44 988.267,7300.18C987.608,7298.91 987.279,7297.47 987.279,7295.84C987.279,7293.03 988.219,7290.71 990.098,7288.88C991.978,7287.06 994.44,7286.15 997.484,7286.15C999.567,7286.15 1001.42,7286.62 1003.05,7287.55C1004.68,7288.49 1005.93,7289.79 1006.81,7291.45C1007.69,7293.11 1008.13,7294.93 1008.13,7296.91L1003.64,7296.91C1003.64,7294.72 1003.11,7293.02 1002.05,7291.81C1000.99,7290.61 999.469,7290.01 997.484,7290.01C995.677,7290.01 994.277,7290.51 993.285,7291.52C992.292,7292.53 991.795,7293.94 991.795,7295.77C991.795,7297.27 992.332,7298.52 993.407,7299.53C994.481,7300.54 996.141,7301.44 998.387,7302.24C1001.89,7303.39 1004.39,7304.82 1005.89,7306.51C1007.4,7308.2 1008.15,7310.42 1008.15,7313.15C1008.15,7316.03 1007.22,7318.34 1005.35,7320.07C1003.47,7321.81 1000.93,7322.67 997.703,7322.67C995.636,7322.67 993.728,7322.22 991.978,7321.32C990.229,7320.41 988.853,7319.14 987.852,7317.51C986.851,7315.87 986.351,7314 986.351,7311.88L990.843,7311.88C990.843,7314.08 991.458,7315.79 992.686,7317.01C993.915,7318.23 995.588,7318.84 997.703,7318.84C999.673,7318.84 1001.15,7318.34 1002.15,7317.33C1003.14,7316.32 1003.64,7314.94 1003.64,7313.2Z" style="fill:rgb(255,254,249);fill-rule:nonzero;"/>
  </g>
</svg>
