<svg viewBox="0 0 512 512" version="1.1" xmlns="http://www.w3.org/2000/svg" xmlns:xlink="http://www.w3.org/1999/xlink" xml:space="preserve" xmlns:serif="http://www.serif.com/" style="fill-rule:evenodd;clip-rule:evenodd;stroke-linejoin:round;stroke-miterlimit:2;">
  <g transform="matrix(1,0,0,1,0,-31.8941)">
    <g transform="matrix(1.17523,0,0,1.17523,-587.085,-6287.1)">
      <path d="M614.375,5464.88C685.043,5512.19 700.375,5545.5 700.375,5545.5L734.382,5545.5C734.382,5545.5 750.431,5511.9 820.386,5464.88C849.444,5492.28 867.596,5531.13 867.596,5574.18C867.596,5657.09 800.286,5724.4 717.378,5724.4C634.47,5724.4 567.16,5657.09 567.16,5574.18C567.16,5531.13 585.312,5492.28 614.375,5464.88Z" style="fill:url(#_Radial1);" />
    </g>
    <g transform="matrix(1.17523,0,0,1.17523,-587.085,-6287.1)">
      <path d="M614.373,5464.88L614.375,5464.88C685.043,5512.19 700.375,5545.5 700.375,5545.5L734.382,5545.5C734.382,5545.5 750.431,5511.9 820.383,5464.89L820.383,5464.89C806.648,5491.13 782.332,5536.27 788.998,5593.51C788.998,5593.51 748.717,5626.32 730.337,5723.85C726.073,5724.21 721.747,5724.4 717.378,5724.4C713.025,5724.4 708.716,5724.21 704.452,5723.85C686.078,5626.32 645.757,5593.5 645.757,5593.5C654.442,5532.71 628.116,5491.29 614.373,5464.88Z" style="fill:url(#_Linear2);" />
    </g>
    <g transform="matrix(-1.22113,0.149935,0.149935,1.22113,4634.9,-3355.25)">
      <path d="M3851.76,2572.2C3857.99,2580.94 3861.82,2590.09 3863.92,2596.12C3864.43,2597.69 3864.12,2599.41 3863.1,2600.7C3862.08,2602 3860.49,2602.7 3858.84,2602.58C3846.41,2601.64 3821.46,2598.31 3814,2587C3802.18,2569.08 3809.16,2555.63 3812.99,2550.39C3814.15,2548.88 3816.07,2548.16 3817.93,2548.54C3823.97,2549.82 3829.32,2552.11 3834.03,2555.05C3829.07,2560.68 3828.66,2568.63 3833.26,2573.24C3837.95,2577.92 3846.12,2577.42 3851.76,2572.2Z" style="fill:url(#_Linear3);" />
    </g>
    <g transform="matrix(1.22113,0.149935,-0.149935,1.22113,-4122.9,-3355.25)">
      <path d="M3851.76,2572.2C3857.99,2580.94 3861.82,2590.09 3863.92,2596.12C3864.43,2597.69 3864.12,2599.41 3863.1,2600.7C3862.08,2602 3860.49,2602.7 3858.84,2602.58C3846.41,2601.64 3821.46,2598.31 3814,2587C3802.18,2569.08 3809.16,2555.63 3812.99,2550.39C3814.15,2548.88 3816.07,2548.16 3817.93,2548.54C3823.97,2549.82 3829.32,2552.11 3834.03,2555.05C3829.07,2560.68 3828.66,2568.63 3833.26,2573.24C3837.95,2577.92 3846.12,2577.42 3851.76,2572.2Z" style="fill:url(#_Linear4);" />
    </g>
  </g>
  <defs>
    <radialGradient id="_Radial1" cx="0" cy="0" r="1" gradientUnits="userSpaceOnUse" gradientTransform="matrix(1.58911e-14,-259.521,259.521,1.58911e-14,717.378,5724.4)">
      <stop offset="0" style="stop-color:rgb(255,254,249);stop-opacity:1" />
      <stop offset="0.53" style="stop-color:rgb(239,231,249);stop-opacity:1" />
      <stop offset="1" style="stop-color:rgb(184,153,247);stop-opacity:1" />
    </radialGradient>
    <linearGradient id="_Linear2" x1="0" y1="0" x2="1" y2="0" gradientUnits="userSpaceOnUse" gradientTransform="matrix(1.58911e-14,259.521,-259.521,1.58911e-14,717.378,5464.35)">
      <stop offset="0" style="stop-color:rgb(151,84,239);stop-opacity:1" />
      <stop offset="0.55" style="stop-color:rgb(141,72,242);stop-opacity:1" />
      <stop offset="1" style="stop-color:rgb(106,25,255);stop-opacity:1" />
    </linearGradient>
    <linearGradient id="_Linear3" x1="0" y1="0" x2="1" y2="0" gradientUnits="userSpaceOnUse" gradientTransform="matrix(-10.4287,-59,59,-10.4287,3846.14,2607)">
      <stop offset="0" style="stop-color:rgb(106,25,255);stop-opacity:1" />
      <stop offset="1" style="stop-color:rgb(151,84,239);stop-opacity:1" />
    </linearGradient>
    <linearGradient id="_Linear4" x1="0" y1="0" x2="1" y2="0" gradientUnits="userSpaceOnUse" gradientTransform="matrix(-10.4287,-59,59,-10.4287,3846.14,2607)">
      <stop offset="0" style="stop-color:rgb(106,25,255);stop-opacity:1" />
      <stop offset="1" style="stop-color:rgb(151,84,239);stop-opacity:1" />
    </linearGradient>
  </defs>
</svg>
