<?xml version="1.0" encoding="UTF-8" standalone="no"?><!DOCTYPE svg PUBLIC "-//W3C//DTD SVG 1.1//EN" "http://www.w3.org/Graphics/SVG/1.1/DTD/svg11.dtd"><svg width="100%" height="100%" viewBox="0 0 4167 4167" version="1.1" xmlns="http://www.w3.org/2000/svg" xmlns:xlink="http://www.w3.org/1999/xlink" xml:space="preserve" xmlns:serif="http://www.serif.com/" style="fill-rule:evenodd;clip-rule:evenodd;stroke-linejoin:round;stroke-miterlimit:2;"><path d="M1084.43,336.885c673.238,450.728 819.301,768.066 819.301,768.066l323.973,0c0,0 152.901,-320.143 819.343,-768.021c276.833,261.001 449.761,631.095 449.761,1041.26c0,789.842 -641.251,1431.09 -1431.09,1431.09c-789.842,-0 -1431.09,-641.252 -1431.09,-1431.09c-0,-410.165 172.928,-780.259 449.809,-1041.31Z" style="fill:url(#_Radial1);"/><path d="M1084.41,336.9l0.016,-0.015c673.238,450.728 819.301,768.066 819.301,768.066l323.973,0c0,0 152.901,-320.143 819.318,-768.004l0.002,0.008c-130.855,250.042 -362.507,680.046 -298.998,1225.35c-0,-0 -383.753,312.611 -558.857,1241.71c-40.618,3.481 -81.83,5.262 -123.455,5.262c-41.466,-0 -82.523,-1.768 -123.138,-5.235c-175.05,-929.147 -559.173,-1241.81 -559.173,-1241.81c82.736,-579.16 -168.066,-973.756 -298.989,-1225.34Z" style="fill:url(#_Linear2);"/><path d="M2560.9,2183.84c-51.039,94.155 -77.903,189.375 -91.352,251.628c-3.096,16.135 2.038,32.754 13.695,44.332c11.658,11.578 28.312,16.598 44.426,13.391c121.901,-24.351 364.819,-87.671 424.957,-208.707c95.272,-191.748 9.803,-316.411 -34.515,-363.585c-13.279,-13.592 -33.169,-18.377 -51.177,-12.312c-58.242,19.936 -108.337,49.116 -151.404,83.957c55.962,49.662 69.64,127.939 29.668,179.101c-40.696,52.088 -122.117,57.017 -184.298,12.195Z" style="fill:url(#_Linear3);"/><path d="M1570.52,2183.84c51.039,94.155 77.903,189.375 91.352,251.628c3.096,16.135 -2.038,32.754 -13.695,44.332c-11.658,11.578 -28.312,16.598 -44.426,13.391c-121.901,-24.351 -364.819,-87.671 -424.957,-208.707c-95.273,-191.748 -9.803,-316.411 34.515,-363.585c13.279,-13.592 33.169,-18.377 51.177,-12.312c58.242,19.936 108.337,49.116 151.404,83.957c-55.962,49.662 -69.64,127.939 -29.668,179.101c40.695,52.088 122.117,57.017 184.298,12.195Z" style="fill:url(#_Linear4);"/><g transform="matrix(8.28693,0,0,8.28693,-4897.74,-56901)"><text x="664.744px" y="7322.18px" style="font-family:'RobotoCondensed-Bold', 'Roboto Condensed';font-weight:700;font-size:50px;fill:#fffef9;">L<tspan x="687.108px " y="7322.18px ">O</tspan>KKEE</text><text x="833.202px" y="7322.18px" style="font-family:'RobotoCondensed-Regular', 'Roboto Condensed';font-size:50px;fill:#fffef9;">STUDIOS</text></g><defs><radialGradient id="_Radial1" cx="0" cy="0" r="1" gradientUnits="userSpaceOnUse" gradientTransform="matrix(1.51391e-13,-2472.4,2472.4,1.51391e-13,2065.72,2809.28)"><stop offset="0" style="stop-color:#fffef9;stop-opacity:1"/><stop offset="0.53" style="stop-color:#efe7f9;stop-opacity:1"/><stop offset="1" style="stop-color:#b899f7;stop-opacity:1"/></radialGradient><linearGradient id="_Linear2" x1="0" y1="0" x2="1" y2="0" gradientUnits="userSpaceOnUse" gradientTransform="matrix(1.51391e-13,2472.4,-2472.4,1.51391e-13,2065.72,331.811)"><stop offset="0" style="stop-color:#9754ef;stop-opacity:1"/><stop offset="0.55" style="stop-color:#8d48f2;stop-opacity:1"/><stop offset="1" style="stop-color:#6a19ff;stop-opacity:1"/></linearGradient><linearGradient id="_Linear3" x1="0" y1="0" x2="1" y2="0" gradientUnits="userSpaceOnUse" gradientTransform="matrix(31.5215,-596.705,-596.705,-31.5215,2658.77,2521.53)"><stop offset="0" style="stop-color:#6a19ff;stop-opacity:1"/><stop offset="1" style="stop-color:#9754ef;stop-opacity:1"/></linearGradient><linearGradient id="_Linear4" x1="0" y1="0" x2="1" y2="0" gradientUnits="userSpaceOnUse" gradientTransform="matrix(-31.5215,-596.705,596.705,-31.5215,1472.65,2521.53)"><stop offset="0" style="stop-color:#6a19ff;stop-opacity:1"/><stop offset="1" style="stop-color:#9754ef;stop-opacity:1"/></linearGradient></defs></svg>