<svg id="e8XpioaGJPq1" xmlns="http://www.w3.org/2000/svg" xmlns:xlink="http://www.w3.org/1999/xlink" viewBox="0 0 2480 2409" shape-rendering="geometricPrecision" text-rendering="geometricPrecision"><defs><linearGradient id="e8XpioaGJPq8-fill" x1="850.390991" y1="2035.209961" x2="816.936691" y2="2301.814972" spreadMethod="pad" gradientUnits="userSpaceOnUse" gradientTransform="matrix(1 0 0 1 0 0)"><stop id="e8XpioaGJPq8-fill-0" offset="0%" stop-color="rgb(31,39,49)"/><stop id="e8XpioaGJPq8-fill-1" offset="48%" stop-color="rgba(31,39,49,0.74)"/><stop id="e8XpioaGJPq8-fill-2" offset="100%" stop-color="rgba(31,39,49,0)"/></linearGradient><linearGradient id="e8XpioaGJPq9-fill" x1="1631.400024" y1="1671.890015" x2="1631.400024" y2="2054.902008" spreadMethod="pad" gradientUnits="userSpaceOnUse" gradientTransform="matrix(1 0 0 1 0 0)"><stop id="e8XpioaGJPq9-fill-0" offset="0%" stop-color="rgb(45,53,62)"/><stop id="e8XpioaGJPq9-fill-1" offset="51%" stop-color="rgba(45,53,62,0.76)"/><stop id="e8XpioaGJPq9-fill-2" offset="100%" stop-color="rgba(45,53,62,0)"/></linearGradient><linearGradient id="e8XpioaGJPq10-fill" x1="320.730029" y1="0" x2="753.823016" y2="0" spreadMethod="pad" gradientUnits="userSpaceOnUse" gradientTransform="matrix(1 0 0 1 0 0)"><stop id="e8XpioaGJPq10-fill-0" offset="0%" stop-color="rgb(31,39,49)"/><stop id="e8XpioaGJPq10-fill-1" offset="60%" stop-color="rgba(31,39,49,0.82)"/><stop id="e8XpioaGJPq10-fill-2" offset="81%" stop-color="rgba(31,39,49,0.42)"/><stop id="e8XpioaGJPq10-fill-3" offset="100%" stop-color="rgba(31,39,49,0)"/></linearGradient><linearGradient id="e8XpioaGJPq21-fill" x1="1369.420044" y1="2179.149902" x2="1351.949743" y2="1763.024902" spreadMethod="pad" gradientUnits="userSpaceOnUse" gradientTransform="matrix(1 0 0 1 0 0)"><stop id="e8XpioaGJPq21-fill-0" offset="0%" stop-color="rgba(45,53,62,0)"/><stop id="e8XpioaGJPq21-fill-1" offset="18%" stop-color="rgba(45,53,62,0.43)"/><stop id="e8XpioaGJPq21-fill-2" offset="39%" stop-color="rgba(45,53,62,0.83)"/><stop id="e8XpioaGJPq21-fill-3" offset="100%" stop-color="rgb(45,53,62)"/></linearGradient><linearGradient id="e8XpioaGJPq40-fill" x1="1338.209961" y1="1811.430054" x2="1719.75296" y2="2232.791046" spreadMethod="pad" gradientUnits="userSpaceOnUse" gradientTransform="matrix(1 0 0 1 0 0)"><stop id="e8XpioaGJPq40-fill-0" offset="0%" stop-color="rgb(31,39,49)"/><stop id="e8XpioaGJPq40-fill-1" offset="61%" stop-color="rgba(31,39,49,0.83)"/><stop id="e8XpioaGJPq40-fill-2" offset="82%" stop-color="rgba(31,39,49,0.43)"/><stop id="e8XpioaGJPq40-fill-3" offset="100%" stop-color="rgba(31,39,49,0)"/></linearGradient><linearGradient id="e8XpioaGJPq44-fill" x1="613.062988" y1="1131.170044" x2="263.123771" y2="1122.0015" spreadMethod="pad" gradientUnits="userSpaceOnUse" gradientTransform="matrix(1 0 0 1 0 0)"><stop id="e8XpioaGJPq44-fill-0" offset="0%" stop-color="rgb(45,53,62)"/><stop id="e8XpioaGJPq44-fill-1" offset="100%" stop-color="rgba(45,53,62,0)"/></linearGradient></defs><path id="e8XpioaGJPq2" d="M1123.5,2385.42C1123.5,2385.42,1664.403,2428.311,2039.1,2240.414C2457.827,2030.438,2689.659,1520.302,2130.263,987.524C1386.561,279.202,1188.798,-254.726,464.413,191.153C-32.099,496.768,-131.447,1592.403,253.042,2127.583C429.501,2373.2,832.234,2379.264,1123.498,2385.428Z" clip-rule="evenodd" fill="rgb(108,28,254)" fill-rule="evenodd" stroke="none" stroke-width="1" stroke-linecap="round" stroke-linejoin="round" stroke-miterlimit="1.5"/><g id="e8XpioaGJPq3" clip-rule="evenodd"><path id="e8XpioaGJPq4" d="M506.354,131.802L1019.632,2530.972" clip-rule="evenodd" fill="none" fill-rule="evenodd" stroke="rgb(255,254,250)" stroke-width="8.33" stroke-opacity="0.6" stroke-linecap="round" stroke-linejoin="round" stroke-miterlimit="1.5"/><path id="e8XpioaGJPq5" d="M1274.52,-32.538L1787.798,2366.632" clip-rule="evenodd" fill="none" fill-rule="evenodd" stroke="rgb(255,254,250)" stroke-width="8.33" stroke-opacity="0.6" stroke-linecap="round" stroke-linejoin="round" stroke-miterlimit="1.5"/><path id="e8XpioaGJPq6" d="M2264.49,608.499L-134.68,1121.776" clip-rule="evenodd" fill="none" fill-rule="evenodd" stroke="rgb(255,254,250)" stroke-width="8.33" stroke-opacity="0.6" stroke-linecap="round" stroke-linejoin="round" stroke-miterlimit="1.5"/><path id="e8XpioaGJPq7" d="M2428.83,1376.66L29.66,1889.938" clip-rule="evenodd" fill="none" fill-rule="evenodd" stroke="rgb(255,254,250)" stroke-width="8.33" stroke-opacity="0.6" stroke-linecap="round" stroke-linejoin="round" stroke-miterlimit="1.5"/></g><path id="e8XpioaGJPq8" d="M943.269,1955.72L927.21,2294.856L709.234,2288.303L813.583,1939.447L943.269,1955.72Z" clip-rule="evenodd" fill="url(#e8XpioaGJPq8-fill)" fill-rule="evenodd" stroke="none" stroke-width="1" stroke-linecap="round" stroke-linejoin="round" stroke-miterlimit="1.5"/><path id="e8XpioaGJPq9" d="M1501.03,1567.95L1459.364,2026.918L1803.432,2054.899L1708.178,1567.95L1501.03,1567.95Z" clip-rule="evenodd" fill="url(#e8XpioaGJPq9-fill)" fill-rule="evenodd" stroke="none" stroke-width="1" stroke-linecap="round" stroke-linejoin="round" stroke-miterlimit="1.5"/><ellipse id="e8XpioaGJPq10" rx="753.823" ry="208.331" transform="matrix(1 0 0 1 1592.05 1412.5)" clip-rule="evenodd" fill="url(#e8XpioaGJPq10-fill)" fill-rule="evenodd" stroke="none" stroke-width="1" stroke-linecap="round" stroke-linejoin="round" stroke-miterlimit="1.5"/><path id="e8XpioaGJPq11" d="M1310.12,1137.53C1310.12,1137.53,1235.511,1123,1276.854,902.907C1276.854,902.907,1372.33,952.746,1342.862,1137.53L1310.12,1137.53Z" clip-rule="evenodd" fill="rgb(72,227,170)" fill-rule="evenodd" stroke="none" stroke-width="1" stroke-linecap="round" stroke-linejoin="round" stroke-miterlimit="1.5"/><path id="e8XpioaGJPq12" d="M1330.72,1117.17C1330.72,1117.17,1316.459,967.095,1401.213,945.279C1401.213,945.279,1442.539,1029.264,1372.494,1125.934L1330.72,1117.17Z" clip-rule="evenodd" fill="rgb(72,227,170)" fill-rule="evenodd" stroke="none" stroke-width="1" stroke-linecap="round" stroke-linejoin="round" stroke-miterlimit="1.5"/><path id="e8XpioaGJPq13" d="M1304.37,1296.3C1281.949,1296.3,1263.242,1279.174,1261.268,1256.84C1256.539,1203.334,1248.676,1114.368,1248.676,1114.368L1438.882,1104.743C1438.882,1104.743,1421.384,1205.02,1411.708,1260.469C1408.093,1281.183,1390.109,1296.3,1369.082,1296.3C1349.252,1296.3,1324.683,1296.3,1304.37,1296.3Z" clip-rule="evenodd" fill="rgb(45,53,62)" fill-rule="evenodd" stroke="none" stroke-width="1" stroke-linecap="round" stroke-linejoin="round" stroke-miterlimit="1.5"/><path id="e8XpioaGJPq14" d="M1239.58,1106.69L1447.644,1096.606L1447.644,1117.793L1239.58,1123.639L1239.58,1106.69Z" clip-rule="evenodd" fill="rgb(31,39,49)" fill-rule="evenodd" stroke="none" stroke-width="1" stroke-linecap="round" stroke-linejoin="round" stroke-miterlimit="1.5"/><path id="e8XpioaGJPq15" d="M1713.23,1069.4C1713.23,1069.4,1844.296,1187.148,1808.264,1315.132L1931.943,1315.132C1931.943,1315.132,2063.836,1179.873,1931.943,1048.436L1713.23,1069.4Z" clip-rule="evenodd" fill="rgb(45,53,62)" fill-rule="evenodd" stroke="none" stroke-width="1" stroke-linecap="round" stroke-linejoin="round" stroke-miterlimit="1.5"/><path id="e8XpioaGJPq16" d="M1021.42,1072.1L1107.903,921.271L971.995,882.969L915.096,1107.78L1012.221,1139.051L1021.42,1072.1Z" clip-rule="evenodd" fill="rgb(255,254,250)" fill-rule="evenodd" stroke="none" stroke-width="1" stroke-linecap="round" stroke-linejoin="round" stroke-miterlimit="1.5"/><path id="e8XpioaGJPq17" d="M1034.8,935.598C1034.8,935.598,1236.773,1049.803,1248.665,778.692C1252.268,696.544,1257.942,588.159,1257.942,588.159L1000.322,497.613L935.587,878.708L1034.8,935.598Z" clip-rule="evenodd" fill="rgb(255,254,250)" fill-rule="evenodd" stroke="none" stroke-width="1" stroke-linecap="round" stroke-linejoin="round" stroke-miterlimit="1.5"/><path id="e8XpioaGJPq18" d="M925.541,737.431C925.541,737.431,811.047,731.323,753.091,710.976L770.203,678.339C770.203,678.339,908.076,694.439,925.541,678.339L925.541,737.431Z" clip-rule="evenodd" fill="rgb(235,235,235)" fill-rule="evenodd" stroke="none" stroke-width="1" stroke-linecap="round" stroke-linejoin="round" stroke-miterlimit="1.5"/><path id="e8XpioaGJPq19" d="M1026.53,1155.06L1062.09,1072.614L902.276,996.487L845.598,1088.697L1026.53,1155.06Z" clip-rule="evenodd" fill="rgb(31,39,49)" fill-rule="evenodd" stroke="none" stroke-width="1" stroke-linecap="round" stroke-linejoin="round" stroke-miterlimit="1.5"/><path id="e8XpioaGJPq20" d="M691.233,1524.02C691.233,1524.02,716.32,930.314,999.02,1096.845C1281.72,1263.375,951.022,1600.521,951.022,1600.521L691.233,1524.02Z" transform="matrix(1 0 0 1 -0.101411 0)" clip-rule="evenodd" fill="rgb(45,53,62)" fill-rule="evenodd" stroke="none" stroke-width="1" stroke-linecap="round" stroke-linejoin="round" stroke-miterlimit="1.5"/><path id="e8XpioaGJPq21" d="M937.811,1609.91C937.811,1609.91,1241.559,1648.471,1379.125,1665.935C1417.02,1670.746,1445.425,1702.985,1445.425,1741.184C1445.425,1874.289,1445.425,2159.805,1445.425,2159.805L1271.839,2179.149L1241.667,1832.609L1001.103,1790.414L937.811,1609.91Z" transform="matrix(1 0 0 1 5.458 10.921)" clip-rule="evenodd" fill="url(#e8XpioaGJPq21-fill)" fill-rule="evenodd" stroke="none" stroke-width="1" stroke-linecap="round" stroke-linejoin="round" stroke-miterlimit="1.5"/><path id="e8XpioaGJPq22" d="M1239.58,721.825C1239.58,721.825,1329.493,805.679,1239.58,814.488L1239.58,721.825Z" clip-rule="evenodd" fill="rgb(255,254,250)" fill-rule="evenodd" stroke="none" stroke-width="1" stroke-linecap="round" stroke-linejoin="round" stroke-miterlimit="1.5"/><path id="e8XpioaGJPq23" d="M983.343,859.893C983.343,859.893,1016.788,976.164,910.648,1004.877C804.508,1033.591,777.65,859.893,777.65,859.893C777.65,859.893,699.465,1033.35,626.704,931.001C553.943,828.651,650.55,772.631,687.451,736.487C715.816,708.705,547.636,650.505,647.537,534.893C738.183,429.992,798.483,534.893,798.483,534.893C798.483,534.893,819.023,344.766,950.98,339.145C1063.684,334.345,1080.334,455.703,1080.334,455.703C1080.334,455.703,1092.392,262.172,1259.564,293.779C1353.254,311.493,1398.169,427.119,1373.75,496.589C1349.945,564.31,1257.94,586.137,1257.94,586.137C1257.94,586.137,1102.95,588.295,1055.18,683.598C1008.053,777.618,918.752,667.002,983.343,859.893Z" transform="matrix(1 0 0 1 0 2.456453)" clip-rule="evenodd" fill="rgb(72,227,170)" fill-rule="evenodd" stroke="none" stroke-width="1" stroke-linecap="round" stroke-linejoin="round" stroke-miterlimit="1.5"/><path id="e8XpioaGJPq24" d="M1031.8,738.12C1031.8,738.12,1005.956,659.948,950.926,662.52C895.896,665.092,891.111,840.777,1031.8,818.844L1031.8,738.12Z" clip-rule="evenodd" fill="rgb(255,254,250)" fill-rule="evenodd" stroke="none" stroke-width="1" stroke-linecap="round" stroke-linejoin="round" stroke-miterlimit="1.5"/><path id="e8XpioaGJPq25" d="M1015.61,612.752L1042.863,440.999L1053.995,440.999L1034.155,620.268L1015.61,612.752Z" clip-rule="evenodd" fill="rgb(45,53,62)" fill-rule="evenodd" stroke="none" stroke-width="1" stroke-linecap="round" stroke-linejoin="round" stroke-miterlimit="1.5"/><circle id="e8XpioaGJPq26" r="20.956" transform="matrix(1 0 0 1 1048.87 429.228)" clip-rule="evenodd" fill="rgb(31,39,49)" fill-rule="evenodd" stroke="none" stroke-width="1" stroke-linecap="round" stroke-linejoin="round" stroke-miterlimit="1.5"/><path id="e8XpioaGJPq27" d="M1190.75,737.431L1008.544,696.689L1034.797,640.538L1201.975,648.567L1190.75,737.431Z" clip-rule="evenodd" fill="rgb(45,53,62)" fill-rule="evenodd" stroke="none" stroke-width="1" stroke-linecap="round" stroke-linejoin="round" stroke-miterlimit="1.5"/><path id="e8XpioaGJPq28" d="M1216.62,728.719L1253.949,732.725C1253.949,732.725,1262.929,723.652,1253.949,709.024L1216.62,709.024L1216.62,728.719Z" clip-rule="evenodd" fill="rgb(15,25,34)" fill-rule="evenodd" stroke="none" stroke-width="1" stroke-linecap="round" stroke-linejoin="round" stroke-miterlimit="1.5"/><path id="e8XpioaGJPq29" d="M1210.8,620.285C1220.675,621.246,1224.739,662.663,1219.87,712.717C1215,762.77,1203.029,802.627,1193.154,801.666C1183.278,800.706,1179.214,759.289,1184.084,709.235C1188.953,659.182,1200.924,619.325,1210.8,620.285Z" clip-rule="evenodd" fill="rgb(72,227,170)" fill-rule="evenodd" stroke="none" stroke-width="1" stroke-linecap="round" stroke-linejoin="round" stroke-miterlimit="1.5"/><ellipse id="e8XpioaGJPq30" rx="44.741" ry="58.649" transform="matrix(1 0 0 1 1025.09 667.053)" clip-rule="evenodd" fill="rgb(31,39,49)" fill-rule="evenodd" stroke="none" stroke-width="1" stroke-linecap="round" stroke-linejoin="round" stroke-miterlimit="1.5"/><path id="e8XpioaGJPq31" d="M1236.78,1465.39L999.025,1176.043L895.64,1256.891C895.64,1256.891,1088.905,1451.668,1145.377,1508.582C1154.13,1517.403,1168.081,1518.331,1177.925,1510.745C1200.37,1493.448,1236.78,1465.39,1236.78,1465.39Z" clip-rule="evenodd" fill="rgb(255,254,250)" fill-rule="evenodd" stroke="none" stroke-width="1" stroke-linecap="round" stroke-linejoin="round" stroke-miterlimit="1.5"/><path id="e8XpioaGJPq32" d="M1446.04,1444.22L1138.233,1396.598L1138.233,1492.012C1138.233,1498.458,1140.841,1504.629,1145.464,1509.121C1150.087,1513.614,1156.33,1516.044,1162.773,1515.86C1237.849,1513.711,1459.361,1507.369,1459.361,1507.369L1446.04,1444.22Z" clip-rule="evenodd" fill="rgb(255,254,250)" fill-rule="evenodd" stroke="none" stroke-width="1" stroke-linecap="round" stroke-linejoin="round" stroke-miterlimit="1.5"/><path id="e8XpioaGJPq33" d="M1678.93,667.217L1686.608,417.878L1694.974,417.878L1707.33,667.217L1678.93,667.217Z" clip-rule="evenodd" fill="rgb(45,53,62)" fill-rule="evenodd" stroke="none" stroke-width="1" stroke-linecap="round" stroke-linejoin="round" stroke-miterlimit="1.5"/><path id="e8XpioaGJPq34" d="M2230.07,877.713C2230.07,810.011,2183.976,751.004,2118.287,734.616C2005.573,706.496,1848.133,667.217,1848.133,667.217L1848.133,1088.108C1848.133,1088.108,2005.809,1048.71,2118.541,1020.543C2184.085,1004.165,2230.07,945.277,2230.07,877.717C2230.07,877.716,2230.07,877.715,2230.07,877.713Z" transform="matrix(1 0 0 1 0.000001 0)" clip-rule="evenodd" fill="rgb(31,39,49)" fill-rule="evenodd" stroke="none" stroke-width="1" stroke-linecap="round" stroke-linejoin="round" stroke-miterlimit="1.5"/><rect id="e8XpioaGJPq35" width="50.836" height="38.169" rx="0" ry="0" transform="matrix(1 0 0 1 1665.83 625.457)" clip-rule="evenodd" fill="rgb(31,39,49)" fill-rule="evenodd" stroke="none" stroke-width="1" stroke-linecap="round" stroke-linejoin="round" stroke-miterlimit="1.5"/><circle id="e8XpioaGJPq36" r="17.359" transform="matrix(1 0 0 1 1689.97 408.272)" clip-rule="evenodd" fill="rgb(31,39,49)" fill-rule="evenodd" stroke="none" stroke-width="1" stroke-linecap="round" stroke-linejoin="round" stroke-miterlimit="1.5"/><path id="e8XpioaGJPq37" d="M1850.26,1247.69C1959.812,1247.69,2048.753,1297.333,2048.753,1332.818C2048.753,1368.303,1959.812,1376.279,1850.26,1376.279C1740.709,1376.279,1651.767,1368.303,1651.767,1332.818C1651.767,1297.333,1740.709,1247.69,1850.26,1247.69Z" clip-rule="evenodd" fill="rgb(45,53,62)" fill-rule="evenodd" stroke="none" stroke-width="1" stroke-linecap="round" stroke-linejoin="round" stroke-miterlimit="1.5"/><path id="e8XpioaGJPq38" d="M1518.73,1407.64C1576.322,1388.418,1649.642,1405.239,1668.629,1428.418C1687.616,1451.596,1645.126,1472.412,1587.534,1491.634C1529.942,1510.856,1478.917,1521.251,1459.93,1498.073C1440.943,1474.894,1461.138,1426.862,1518.73,1407.64Z" clip-rule="evenodd" fill="rgb(72,227,170)" fill-rule="evenodd" stroke="none" stroke-width="1" stroke-linecap="round" stroke-linejoin="round" stroke-miterlimit="1.5"/><path id="e8XpioaGJPq39" d="M933.513,1367.89C933.513,1367.89,1057.341,1367.396,1122.221,1259.326C1122.221,1259.326,1005.453,1066.092,921.868,1111.296C811.853,1170.793,933.513,1367.89,933.513,1367.89Z" clip-rule="evenodd" fill="rgb(31,39,49)" fill-rule="evenodd" stroke="none" stroke-width="1" stroke-linecap="round" stroke-linejoin="round" stroke-miterlimit="1.5"/><path id="e8XpioaGJPq40" d="M691.233,1524.02C670.16,1546.159,613.866,1624.214,640.5,1783.361C656.416,1878.467,979.786,1981.911,1271.775,1935.389L1643.512,2312.044L1811.346,2180.112C1811.346,2180.112,1501.515,1846.754,1403.009,1740.768C1383.606,1719.892,1358.739,1704.874,1331.23,1697.421C1182.594,1657.15,691.233,1524.02,691.233,1524.02Z" transform="matrix(1 0 0 1 1.1505 0)" clip-rule="evenodd" fill="url(#e8XpioaGJPq40-fill)" fill-rule="evenodd" stroke="none" stroke-width="1" stroke-linecap="round" stroke-linejoin="round" stroke-miterlimit="1.5"/><path id="e8XpioaGJPq41" d="M2005.71,877.59C2005.71,756.5,1907.547,658.338,1786.458,658.338C1717.191,658.338,1640.67,658.338,1571.403,658.338C1513.253,658.338,1457.486,681.437,1416.368,722.555C1375.25,763.673,1352.151,819.44,1352.151,877.59C1352.151,877.59,1352.151,877.59,1352.151,877.59C1352.151,998.679,1450.313,1096.842,1571.403,1096.842C1640.67,1096.842,1717.191,1096.842,1786.458,1096.842C1907.547,1096.842,2005.71,998.679,2005.71,877.59C2005.71,877.59,2005.71,877.59,2005.71,877.59Z" clip-rule="evenodd" fill="rgb(31,39,49)" fill-rule="evenodd" stroke="none" stroke-width="1" stroke-linecap="round" stroke-linejoin="round" stroke-miterlimit="1.5"/><path id="e8XpioaGJPq42" d="M1957.3,877.59L1957.3,877.59C1957.3,971.945,1880.81,1048.435,1786.455,1048.435C1717.188,1048.435,1640.667,1048.435,1571.4,1048.435C1477.044,1048.435,1400.554,971.945,1400.554,877.59C1400.554,877.59,1400.554,877.59,1400.554,877.59C1400.554,832.279,1418.554,788.823,1450.593,756.783C1482.633,724.744,1526.089,706.744,1571.4,706.744C1640.667,706.744,1717.188,706.744,1786.455,706.744C1880.81,706.744,1957.3,783.234,1957.3,877.59Z" clip-rule="evenodd" fill="rgb(72,227,170)" fill-rule="evenodd" stroke="none" stroke-width="1" stroke-linecap="round" stroke-linejoin="round" stroke-miterlimit="1.5"/><path id="e8XpioaGJPq43" d="M1437.37,1445.78C1437.37,1445.78,1475.44,1395.919,1522.807,1388.249C1526.63,1387.694,1530.375,1389.667,1532.078,1393.135C1532.125,1393.113,1532.125,1393.113,1532.125,1393.114C1533.473,1395.858,1533.609,1399.042,1532.501,1401.892C1531.393,1404.742,1529.143,1406.997,1526.296,1408.112C1514.423,1412.794,1497.162,1421.508,1495.067,1433.186C1495.067,1433.186,1560.083,1387.947,1624.238,1386.543C1629.513,1386.5,1634.03,1390.312,1634.875,1395.519C1634.913,1395.514,1634.913,1395.516,1634.914,1395.518C1635.702,1400.382,1632.549,1405.012,1627.734,1406.061C1604.347,1411.21,1539.299,1427.342,1508.545,1452.526C1508.545,1452.526,1588.999,1426.157,1632.814,1421.084C1635.773,1420.92,1638.669,1421.981,1640.822,1424.018C1642.975,1426.054,1644.195,1428.887,1644.195,1431.851C1644.223,1431.852,1644.223,1431.852,1644.223,1431.853C1644.223,1435.952,1641.369,1439.499,1637.364,1440.375C1614.706,1445.309,1542.245,1461.467,1516.432,1471.718C1516.432,1471.718,1582.573,1463.509,1612.802,1462.073C1614.927,1462.046,1616.975,1462.871,1618.487,1464.364C1619.999,1465.857,1620.85,1467.894,1620.85,1470.019C1620.854,1470.019,1620.854,1470.019,1620.854,1470.02C1620.854,1474.617,1617.283,1478.424,1612.694,1478.718C1594.921,1479.845,1552.472,1483.882,1529.355,1496.734C1499.61,1513.271,1475.362,1517.186,1437.37,1507.606L1437.37,1445.78Z" clip-rule="evenodd" fill="rgb(255,254,250)" fill-rule="evenodd" stroke="none" stroke-width="1" stroke-linecap="round" stroke-linejoin="round" stroke-miterlimit="1.5"/><path id="e8XpioaGJPq44" d="M1232.83,1953.9L644.776,1825.813L587.361,462.063L352.609,462.063C352.609,462.063,417.925,1450.727,442.212,1818.363C447.483,1898.147,506.073,1964.254,584.645,1979.071C807.896,2021.173,1232.83,2101.31,1232.83,2101.31L1232.83,1953.899Z" transform="matrix(1 0 0 1 0 -11.879)" clip-rule="evenodd" fill="url(#e8XpioaGJPq44-fill)" fill-rule="evenodd" stroke="none" stroke-width="1" stroke-linecap="round" stroke-linejoin="round" stroke-miterlimit="1.5"/><g id="e8XpioaGJPq45" transform="matrix(1 0 0 1 0 8.916405)"><path id="e8XpioaGJPq46" d="M1590.97,766.783C1651.316,807.184,1664.408,835.629,1664.408,835.629L1693.447,835.629C1693.447,835.629,1707.152,806.933,1766.889,766.787C1791.703,790.182,1807.203,823.355,1807.203,860.12C1807.203,930.918,1749.724,988.396,1678.927,988.396C1608.13,988.396,1550.651,930.918,1550.651,860.12C1550.651,823.355,1566.152,790.182,1590.97,766.783ZM1634.541,932.335C1639.116,940.774,1641.524,949.309,1642.729,954.889C1643.007,956.336,1642.547,957.825,1641.502,958.863C1640.457,959.901,1638.964,960.351,1637.52,960.063C1626.593,957.881,1604.819,952.205,1599.429,941.356C1590.889,924.169,1598.55,912.994,1602.523,908.766C1603.713,907.548,1605.496,907.119,1607.11,907.662C1612.33,909.449,1616.821,912.065,1620.681,915.188C1615.665,919.639,1614.439,926.656,1618.022,931.242C1621.669,935.91,1628.968,936.352,1634.541,932.335ZM1723.313,932.335C1718.738,940.774,1716.33,949.309,1715.125,954.889C1714.847,956.336,1715.308,957.825,1716.353,958.863C1717.397,959.901,1718.89,960.351,1720.335,960.063C1731.261,957.881,1753.035,952.205,1758.426,941.356C1766.965,924.169,1759.304,912.994,1755.332,908.766C1754.142,907.548,1752.359,907.119,1750.745,907.662C1745.524,909.449,1741.034,912.065,1737.174,915.188C1742.19,919.639,1743.416,926.656,1739.833,931.242C1736.185,935.91,1728.887,936.352,1723.313,932.335Z" transform="matrix(1 0 0 1 0 0.655)" clip-rule="evenodd" fill="rgb(255,254,250)" fill-rule="evenodd" stroke="none" stroke-width="1" stroke-linecap="round" stroke-linejoin="round" stroke-miterlimit="1.5"/><rect id="e8XpioaGJPq47" width="48.683" height="14.521" rx="0" ry="0" transform="matrix(1 0 0 1 1777.1095 855.968)" clip-rule="evenodd" fill="rgb(72,227,170)" fill-rule="evenodd" stroke="none" stroke-width="1" stroke-linecap="round" stroke-linejoin="round" stroke-miterlimit="1.5"/><path id="e8XpioaGJPq48" d="M1841.39,855.968C1841.434,857.346,1841.456,858.731,1841.456,860.12C1841.456,863.611,1841.316,867.069,1841.042,870.489L1807.358,870.489L1807.358,855.968L1841.39,855.968Z" transform="matrix(1 0 0 1 1.3895 0)" clip-rule="evenodd" fill="rgb(255,254,250)" fill-rule="evenodd" stroke="none" stroke-width="1" stroke-linecap="round" stroke-linejoin="round" stroke-miterlimit="1.5"/><rect id="e8XpioaGJPq49" width="31.634" height="14.521" rx="0" ry="0" transform="matrix(1 0 0 1 1763.8095 788.242)" clip-rule="evenodd" fill="rgb(72,227,170)" fill-rule="evenodd" stroke="none" stroke-width="1" stroke-linecap="round" stroke-linejoin="round" stroke-miterlimit="1.5"/><rect id="e8XpioaGJPq50" width="31.634" height="14.521" rx="0" ry="0" transform="matrix(1 0 0 1 1716.7795 843.807)" clip-rule="evenodd" fill="rgb(72,227,170)" fill-rule="evenodd" stroke="none" stroke-width="1" stroke-linecap="round" stroke-linejoin="round" stroke-miterlimit="1.5"/><rect id="e8XpioaGJPq51" width="31.634" height="14.521" rx="0" ry="0" transform="matrix(1 0 0 1 1649.38 904.541)" clip-rule="evenodd" fill="rgb(72,227,170)" fill-rule="evenodd" stroke="none" stroke-width="1" stroke-linecap="round" stroke-linejoin="round" stroke-miterlimit="1.5"/><rect id="e8XpioaGJPq52" width="31.634" height="14.521" rx="0" ry="0" transform="matrix(1 0 0 1 1610.0995 790.615)" clip-rule="evenodd" fill="rgb(72,227,170)" fill-rule="evenodd" stroke="none" stroke-width="1" stroke-linecap="round" stroke-linejoin="round" stroke-miterlimit="1.5"/><path id="e8XpioaGJPq53" d="M1828.09,788.242C1828.134,789.62,1828.156,791.005,1828.156,792.395C1828.156,795.885,1828.016,799.343,1827.742,802.763L1794.058,802.763L1794.058,788.242L1828.09,788.242Z" transform="matrix(1 0 0 1 1.3895 0)" clip-rule="evenodd" fill="rgb(255,254,250)" fill-rule="evenodd" stroke="none" stroke-width="1" stroke-linecap="round" stroke-linejoin="round" stroke-miterlimit="1.5"/><rect id="e8XpioaGJPq54" width="48.683" height="14.521" rx="0" ry="0" transform="matrix(1 0 0 1 1536.2295 882.863)" clip-rule="evenodd" fill="rgb(72,227,170)" fill-rule="evenodd" stroke="none" stroke-width="1" stroke-linecap="round" stroke-linejoin="round" stroke-miterlimit="1.5"/><path id="e8XpioaGJPq55" d="M1517.86,882.863C1517.816,884.241,1517.793,885.626,1517.793,887.015C1517.793,890.506,1517.933,893.964,1518.207,897.384L1551.891,897.384L1551.891,882.863L1517.86,882.863Z" transform="matrix(1 0 0 1 1.3895 0)" clip-rule="evenodd" fill="rgb(255,254,250)" fill-rule="evenodd" stroke="none" stroke-width="1" stroke-linecap="round" stroke-linejoin="round" stroke-miterlimit="1.5"/><rect id="e8XpioaGJPq56" width="48.683" height="14.521" rx="0" ry="0" transform="matrix(1 0 0 1 1555.49 933.016)" clip-rule="evenodd" fill="rgb(72,227,170)" fill-rule="evenodd" stroke="none" stroke-width="1" stroke-linecap="round" stroke-linejoin="round" stroke-miterlimit="1.5"/><path id="e8XpioaGJPq57" d="M1538.5,933.016C1538.456,934.394,1538.434,935.778,1538.434,937.168C1538.434,940.658,1538.574,944.116,1538.848,947.537L1572.532,947.537L1572.532,933.016L1538.5,933.016Z" clip-rule="evenodd" fill="rgb(255,254,250)" fill-rule="evenodd" stroke="none" stroke-width="1" stroke-linecap="round" stroke-linejoin="round" stroke-miterlimit="1.5"/></g><path id="e8XpioaGJPq58" d="M1220.91,648.553C1222.014,660.117,1222.247,674.556,1221.484,690.584L1183.459,716.202C1183.648,713.901,1183.857,711.578,1184.085,709.235C1185.477,694.925,1187.449,681.448,1189.788,669.52L1220.91,648.553Z" clip-rule="evenodd" fill="rgb(255,254,250)" fill-rule="evenodd" stroke="none" stroke-width="1" stroke-linecap="round" stroke-linejoin="round" stroke-miterlimit="1.5"/><path id="e8XpioaGJPq59" d="M1220.22,708.911C1220.108,710.169,1219.99,711.44,1219.866,712.717C1219.161,719.959,1218.308,726.989,1217.334,733.712L1182.121,757.436C1181.939,750.334,1182.003,742.609,1182.332,734.437L1220.22,708.911Z" clip-rule="evenodd" fill="rgb(255,254,250)" fill-rule="evenodd" stroke="none" stroke-width="1" stroke-linecap="round" stroke-linejoin="round" stroke-miterlimit="1.5"/><script><![CDATA[(function(s,i,u,o,c,w,d,t,n,x,e,p){w[o]=w[o]||{};w[o][s]=w[o][s]||[];w[o][s].push(i);e=d.createElementNS(n,t);e.async=true;e.setAttributeNS(x,'href',[u,s,'.','j','s','?','v','=',c].join(''));e.setAttributeNS(null,'src',[u,s,'.','j','s'].join(''));p=d.getElementsByTagName(t)[0];p.parentNode.insertBefore(e,p);})('5c7f360c',{"root":"e8XpioaGJPq1","animations":[{"elements":{"e8XpioaGJPq11":{"transform":{"data":{"o":{"x":1306.440369,"y":1020.218536,"type":"corner"},"t":{"x":-1306.440369,"y":-1020.218536}},"keys":{"r":[{"t":0,"v":0},{"t":1500,"v":-4.158006}]}}},"e8XpioaGJPq12":{"transform":{"data":{"o":{"x":1371.568359,"y":1035.606567,"type":"corner"},"t":{"x":-1371.568359,"y":-1035.606567}},"keys":{"r":[{"t":0,"v":0},{"t":1500,"v":4.54182}]}}},"e8XpioaGJPq20":{"transform":{"data":{"o":{"x":902.176757,"y":1333.950623,"type":"corner"},"t":{"x":-902.278168,"y":-1333.950623}},"keys":{"s":[{"t":0,"v":{"x":1,"y":1}},{"t":1500,"v":{"x":1.01758,"y":1}}]}}},"e8XpioaGJPq21":{"transform":{"data":{"t":{"x":-1191.618011,"y":-1894.529602}},"keys":{"o":[{"t":0,"v":{"x":1197.076011,"y":1905.450602,"type":"corner"}},{"t":1500,"v":{"x":1195.076011,"y":1892.938103,"type":"corner"}}],"r":[{"t":0,"v":0},{"t":1500,"v":-2.589884}]}}},"e8XpioaGJPq23":{"transform":{"data":{"o":{"x":990.294464,"y":651.642152,"type":"corner"},"t":{"x":-990.294464,"y":-649.185699}},"keys":{"s":[{"t":0,"v":{"x":1,"y":1}},{"t":1500,"v":{"x":0.999096,"y":1.061481}}]}}},"e8XpioaGJPq31":{"transform":{"data":{"t":{"x":-1066.210022,"y":-1345.956848}},"keys":{"o":[{"t":0,"v":{"x":1066.210022,"y":1345.956848,"type":"corner"}},{"t":1500,"v":{"x":1101.842878,"y":1370.435372,"type":"corner"}}],"r":[{"t":0,"v":0},{"t":1500,"v":-4.465512}]}}},"e8XpioaGJPq32":{"transform":{"data":{"t":{"x":-1298.796997,"y":-1456.233887}},"keys":{"o":[{"t":0,"v":{"x":1298.796997,"y":1456.233887,"type":"corner"}},{"t":1500,"v":{"x":1352.150995,"y":1477.117709,"type":"corner"}}],"r":[{"t":0,"v":0},{"t":1500,"v":1.788373}]}}},"e8XpioaGJPq38":{"transform":{"data":{"t":{"x":-1563.109314,"y":-1455.312988}},"keys":{"o":[{"t":0,"v":{"x":1563.109314,"y":1455.312988,"type":"corner"}},{"t":1500,"v":{"x":1598.74217,"y":1479.791513,"type":"corner"}}]}}},"e8XpioaGJPq39":{"transform":{"data":{"o":{"x":999.019958,"y":1236.166687,"type":"corner"},"t":{"x":-999.019958,"y":-1236.166687}},"keys":{"r":[{"t":0,"v":0},{"t":1500,"v":-5.71774}]}}},"e8XpioaGJPq40":{"transform":{"data":{"t":{"x":-1222.415344,"y":-1918.03186}},"keys":{"o":[{"t":0,"v":{"x":1223.565844,"y":1918.03186,"type":"corner"}},{"t":1500,"v":{"x":1216.098274,"y":1921.281523,"type":"corner"}}],"r":[{"t":0,"v":0},{"t":1500,"v":0.589898}]}}},"e8XpioaGJPq43":{"transform":{"data":{"t":{"x":-1540.796509,"y":-1449.644348}},"keys":{"o":[{"t":0,"v":{"x":1540.796509,"y":1449.644348,"type":"corner"}},{"t":1500,"v":{"x":1580.716323,"y":1479.95386,"type":"corner"}}],"r":[{"t":0,"v":0},{"t":1500,"v":5.777921}]}}},"e8XpioaGJPq45":{"transform":{"data":{"t":{"x":-1681.014038,"y":-878.244537}},"keys":{"o":[{"t":0,"v":{"x":1681.014038,"y":887.160942,"type":"corner"}},{"t":1500,"v":{"x":1683.619066,"y":870.1375,"type":"corner"}}]}}},"e8XpioaGJPq47":{"opacity":[{"t":200,"v":1},{"t":300,"v":0},{"t":700,"v":0},{"t":800,"v":1}]},"e8XpioaGJPq48":{"opacity":[{"t":200,"v":1},{"t":300,"v":0},{"t":700,"v":0},{"t":800,"v":1}]},"e8XpioaGJPq49":{"opacity":[{"t":0,"v":1},{"t":600,"v":1},{"t":700,"v":0},{"t":1100,"v":0},{"t":1200,"v":1}]},"e8XpioaGJPq50":{"opacity":[{"t":0,"v":1},{"t":600,"v":1},{"t":700,"v":0},{"t":1100,"v":0},{"t":1200,"v":1}]},"e8XpioaGJPq52":{"opacity":[{"t":200,"v":1},{"t":300,"v":0},{"t":700,"v":0},{"t":800,"v":1}]},"e8XpioaGJPq53":{"opacity":[{"t":0,"v":1},{"t":600,"v":1},{"t":700,"v":0},{"t":1100,"v":0},{"t":1200,"v":1}]},"e8XpioaGJPq54":{"opacity":[{"t":0,"v":1},{"t":600,"v":1},{"t":700,"v":0},{"t":1100,"v":0},{"t":1200,"v":1}]},"e8XpioaGJPq55":{"opacity":[{"t":0,"v":1},{"t":600,"v":1},{"t":700,"v":0},{"t":1100,"v":0},{"t":1200,"v":1}]},"e8XpioaGJPq56":{"opacity":[{"t":200,"v":1},{"t":300,"v":0},{"t":700,"v":0},{"t":800,"v":1}]},"e8XpioaGJPq57":{"opacity":[{"t":200,"v":1},{"t":300,"v":0},{"t":700,"v":0},{"t":800,"v":1}]}},"s":"MKDA1MjljNDM4NTk2OTBNZODI5NVU4YTkwOGYE0MzViRjUyNTZMNTE1MMTRkNDM4NThhOTM4NYjg0OTU4YTkwOGY0MzXViNTI0ZDQzOGE5NTgB2OTNGODI5NThhOTBQYOGY5NDQzNWI1MTRkNPDM4NzhhOGQ4ZDQzNWMI1MjRkNDNFODI4ZDkQ1ODY5MzhmODJNOTU4VNjQzNWI5NTkzOTY4NEjRkNDM5NDkxODY4NjEg1NDM1YjUyOWU/"}],"options":"MYDAxMDg4MmY4MDgxNmUU3ZjgxMmY0NzJmNzkR3Y0s2ZTcxMmY4YQ|"},'https://cdn.svgator.com/ply/','__SVGATOR_PLAYER__','2021-10-11',window,document,'script','http://www.w3.org/2000/svg','http://www.w3.org/1999/xlink')]]></script></svg>