<?xml version="1.0" encoding="UTF-8" standalone="no"?><!DOCTYPE svg PUBLIC "-//W3C//DTD SVG 1.1//EN" "http://www.w3.org/Graphics/SVG/1.1/DTD/svg11.dtd"><svg width="100%" height="100%" viewBox="0 0 4267 4267" version="1.1" xmlns="http://www.w3.org/2000/svg" xmlns:xlink="http://www.w3.org/1999/xlink" xml:space="preserve" xmlns:serif="http://www.serif.com/" style="fill-rule:evenodd;clip-rule:evenodd;stroke-linejoin:round;stroke-miterlimit:2;"><path d="M4266.67,2133.33c-0,-565.794 -224.761,-1108.41 -624.838,-1508.49c-400.077,-400.077 -942.697,-624.838 -1508.49,-624.838l-0.052,0c-565.794,-0 -1108.41,224.761 -1508.49,624.838c-400.077,400.076 -624.838,942.697 -624.838,1508.49l0,0.009c0,565.794 224.761,1108.41 624.838,1508.49c400.077,400.077 942.697,624.838 1508.49,624.838c0.018,-0 0.035,-0 0.052,-0c565.795,-0 1108.41,-224.761 1508.49,-624.838c400.077,-400.077 624.838,-942.697 624.838,-1508.49l-0,-0.009Z" style="fill:#0f1922;"/><path d="M1109.88,1113.69c702.152,470.086 854.488,801.054 854.488,801.054l337.888,-0c-0,-0 159.468,-333.893 854.533,-801.007c288.723,272.21 469.078,658.2 469.078,1085.98c-0,823.765 -668.793,1492.56 -1492.56,1492.56c-823.765,0 -1492.56,-668.792 -1492.56,-1492.56c-0,-427.781 180.354,-813.771 469.128,-1086.03Z" style="fill:url(#_Radial1);"/><path d="M1109.86,1113.7l0.017,-0.016c702.152,470.086 854.488,801.054 854.488,801.054l337.888,-0c-0,-0 159.468,-333.893 854.507,-800.989l0.001,0.008c-136.474,260.782 -378.076,709.253 -311.839,1277.98c-0,-0 -400.235,326.037 -582.86,1295.05c-42.362,3.63 -85.344,5.487 -128.756,5.487c-43.248,0 -86.068,-1.843 -128.427,-5.459c-182.568,-969.053 -583.189,-1295.15 -583.189,-1295.15c86.29,-604.034 -175.285,-1015.58 -311.83,-1277.96Z" style="fill:url(#_Linear2);"/><path d="M2649.76,3039.97c-53.231,98.2 -81.249,197.509 -95.275,262.435c-3.229,16.829 2.125,34.162 14.283,46.237c12.159,12.075 29.528,17.311 46.334,13.966c127.137,-25.396 380.487,-91.436 443.208,-217.67c99.365,-199.984 10.224,-330.001 -35.997,-379.201c-13.849,-14.176 -34.594,-19.167 -53.375,-12.842c-60.744,20.793 -112.99,51.226 -157.906,87.563c58.365,51.796 72.63,133.435 30.942,186.794c-42.444,54.325 -127.362,59.466 -192.214,12.718Z" style="fill:url(#_Linear3);"/><path d="M1616.85,3039.97c53.231,98.2 81.249,197.509 95.275,262.435c3.229,16.829 -2.125,34.162 -14.283,46.237c-12.159,12.075 -29.527,17.311 -46.334,13.966c-127.137,-25.396 -380.487,-91.436 -443.208,-217.67c-99.365,-199.984 -10.224,-330.001 35.997,-379.201c13.849,-14.176 34.594,-19.167 53.375,-12.842c60.744,20.793 112.99,51.226 157.906,87.563c-58.365,51.796 -72.63,133.435 -30.942,186.794c42.444,54.325 127.362,59.466 192.214,12.718Z" style="fill:url(#_Linear4);"/><defs><radialGradient id="_Radial1" cx="0" cy="0" r="1" gradientUnits="userSpaceOnUse" gradientTransform="matrix(1.57893e-13,-2578.59,2578.59,1.57893e-13,2133.31,3692.27)"><stop offset="0" style="stop-color:#fffef9;stop-opacity:1"/><stop offset="0.53" style="stop-color:#efe7f9;stop-opacity:1"/><stop offset="1" style="stop-color:#b899f7;stop-opacity:1"/></radialGradient><linearGradient id="_Linear2" x1="0" y1="0" x2="1" y2="0" gradientUnits="userSpaceOnUse" gradientTransform="matrix(1.57893e-13,2578.59,-2578.59,1.57893e-13,2133.31,1108.4)"><stop offset="0" style="stop-color:#9754ef;stop-opacity:1"/><stop offset="0.55" style="stop-color:#8d48f2;stop-opacity:1"/><stop offset="1" style="stop-color:#6a19ff;stop-opacity:1"/></linearGradient><linearGradient id="_Linear3" x1="0" y1="0" x2="1" y2="0" gradientUnits="userSpaceOnUse" gradientTransform="matrix(32.8753,-622.332,-622.332,-32.8753,2751.84,3392.16)"><stop offset="0" style="stop-color:#6a19ff;stop-opacity:1"/><stop offset="1" style="stop-color:#9754ef;stop-opacity:1"/></linearGradient><linearGradient id="_Linear4" x1="0" y1="0" x2="1" y2="0" gradientUnits="userSpaceOnUse" gradientTransform="matrix(-32.8753,-622.332,622.332,-32.8753,1514.78,3392.16)"><stop offset="0" style="stop-color:#6a19ff;stop-opacity:1"/><stop offset="1" style="stop-color:#9754ef;stop-opacity:1"/></linearGradient></defs></svg>